%TF.GenerationSoftware,KiCad,Pcbnew,7.0.1-0*%
%TF.CreationDate,2023-09-15T13:21:47+02:00*%
%TF.ProjectId,letterboxsensor,6c657474-6572-4626-9f78-73656e736f72,rev?*%
%TF.SameCoordinates,Original*%
%TF.FileFunction,Paste,Top*%
%TF.FilePolarity,Positive*%
%FSLAX46Y46*%
G04 Gerber Fmt 4.6, Leading zero omitted, Abs format (unit mm)*
G04 Created by KiCad (PCBNEW 7.0.1-0) date 2023-09-15 13:21:47*
%MOMM*%
%LPD*%
G01*
G04 APERTURE LIST*
G04 Aperture macros list*
%AMRoundRect*
0 Rectangle with rounded corners*
0 $1 Rounding radius*
0 $2 $3 $4 $5 $6 $7 $8 $9 X,Y pos of 4 corners*
0 Add a 4 corners polygon primitive as box body*
4,1,4,$2,$3,$4,$5,$6,$7,$8,$9,$2,$3,0*
0 Add four circle primitives for the rounded corners*
1,1,$1+$1,$2,$3*
1,1,$1+$1,$4,$5*
1,1,$1+$1,$6,$7*
1,1,$1+$1,$8,$9*
0 Add four rect primitives between the rounded corners*
20,1,$1+$1,$2,$3,$4,$5,0*
20,1,$1+$1,$4,$5,$6,$7,0*
20,1,$1+$1,$6,$7,$8,$9,0*
20,1,$1+$1,$8,$9,$2,$3,0*%
%AMRotRect*
0 Rectangle, with rotation*
0 The origin of the aperture is its center*
0 $1 length*
0 $2 width*
0 $3 Rotation angle, in degrees counterclockwise*
0 Add horizontal line*
21,1,$1,$2,0,0,$3*%
G04 Aperture macros list end*
%ADD10R,2.600000X0.600000*%
%ADD11RoundRect,0.250000X-0.312500X-0.625000X0.312500X-0.625000X0.312500X0.625000X-0.312500X0.625000X0*%
%ADD12RoundRect,0.250000X0.312500X0.625000X-0.312500X0.625000X-0.312500X-0.625000X0.312500X-0.625000X0*%
%ADD13R,2.500000X2.200000*%
%ADD14R,1.550000X2.200000*%
%ADD15RoundRect,0.237500X-0.237500X0.300000X-0.237500X-0.300000X0.237500X-0.300000X0.237500X0.300000X0*%
%ADD16RoundRect,0.218750X0.218750X0.256250X-0.218750X0.256250X-0.218750X-0.256250X0.218750X-0.256250X0*%
%ADD17R,2.540000X3.510000*%
%ADD18RoundRect,0.250000X0.250000X0.750000X-0.250000X0.750000X-0.250000X-0.750000X0.250000X-0.750000X0*%
%ADD19RoundRect,0.237500X-0.300000X-0.237500X0.300000X-0.237500X0.300000X0.237500X-0.300000X0.237500X0*%
%ADD20RoundRect,0.237500X0.300000X0.237500X-0.300000X0.237500X-0.300000X-0.237500X0.300000X-0.237500X0*%
%ADD21R,2.477223X0.426984*%
%ADD22RoundRect,0.213492X1.025119X0.000000X-1.025119X0.000000X-1.025119X0.000000X1.025119X0.000000X0*%
%ADD23RoundRect,0.250000X0.625000X-0.312500X0.625000X0.312500X-0.625000X0.312500X-0.625000X-0.312500X0*%
%ADD24RoundRect,0.250000X-0.250000X-0.750000X0.250000X-0.750000X0.250000X0.750000X-0.250000X0.750000X0*%
%ADD25R,1.450000X0.600000*%
%ADD26R,1.450000X0.300000*%
%ADD27RoundRect,0.250000X-1.343503X-0.106066X-0.106066X-1.343503X1.343503X0.106066X0.106066X1.343503X0*%
%ADD28R,1.500000X1.100000*%
%ADD29RoundRect,0.250000X-0.350000X0.275000X-0.350000X-0.275000X0.350000X-0.275000X0.350000X0.275000X0*%
%ADD30RoundRect,0.250000X0.106066X-1.343503X1.343503X-0.106066X-0.106066X1.343503X-1.343503X0.106066X0*%
%ADD31RotRect,1.800000X0.700000X45.000000*%
%ADD32RotRect,1.800000X0.700000X315.000000*%
G04 APERTURE END LIST*
D10*
X111275400Y-72449600D03*
X111275400Y-73549600D03*
X116775400Y-72449600D03*
X116775400Y-73549600D03*
X116775400Y-73549600D03*
X116775400Y-72449600D03*
D11*
X114687500Y-76400000D03*
X111762500Y-76400000D03*
D12*
X186537500Y-74825000D03*
X183612500Y-74825000D03*
D13*
X186324600Y-71400000D03*
D14*
X183749600Y-71400000D03*
D15*
X191669200Y-89287500D03*
X191669200Y-91012500D03*
D16*
X192456700Y-87493600D03*
X190881700Y-87493600D03*
D17*
X156480000Y-89275000D03*
X127120000Y-89275000D03*
D11*
X121262500Y-73500000D03*
X124187500Y-73500000D03*
D18*
X157975000Y-78650000D03*
X153575000Y-78650000D03*
D11*
X114687500Y-79650000D03*
X111762500Y-79650000D03*
D13*
X106300000Y-96400000D03*
D14*
X108875000Y-96400000D03*
D12*
X176987500Y-101650000D03*
X179912500Y-101650000D03*
X111762500Y-96400000D03*
X114687500Y-96400000D03*
D19*
X112062500Y-85975000D03*
X113787500Y-85975000D03*
D10*
X183900000Y-101100000D03*
X183900000Y-102200000D03*
X189400000Y-101100000D03*
X189400000Y-102200000D03*
X189400000Y-102200000D03*
X189400000Y-101100000D03*
D11*
X157650000Y-100387500D03*
X160575000Y-100387500D03*
D12*
X160575000Y-97237500D03*
X157650000Y-97237500D03*
D20*
X162762500Y-89650000D03*
X161037500Y-89650000D03*
D21*
X121717041Y-89825000D03*
D22*
X121717041Y-89190000D03*
X121717041Y-88555000D03*
X121717041Y-87920000D03*
X121717041Y-87285000D03*
X121717041Y-86650000D03*
X121717041Y-86015000D03*
X121717041Y-85380000D03*
X116890558Y-85380000D03*
X116890558Y-86015000D03*
X116890558Y-86650000D03*
X116890558Y-87285000D03*
X116890558Y-87920000D03*
X116890558Y-88555000D03*
X116890558Y-89190000D03*
X116890558Y-89825000D03*
D23*
X111325000Y-91712500D03*
X111325000Y-88787500D03*
D11*
X188575000Y-97950000D03*
X185650000Y-97950000D03*
X111762500Y-82675000D03*
X114687500Y-82675000D03*
D24*
X125825000Y-78650000D03*
X130225000Y-78650000D03*
D25*
X107495000Y-84300000D03*
X107495000Y-85100000D03*
D26*
X107495000Y-86250000D03*
X107495000Y-87250000D03*
X107495000Y-87750000D03*
X107495000Y-88750000D03*
D25*
X107495000Y-89900000D03*
X107495000Y-90700000D03*
X107495000Y-90700000D03*
X107495000Y-89900000D03*
D26*
X107495000Y-89250000D03*
X107495000Y-88250000D03*
X107495000Y-86750000D03*
X107495000Y-85750000D03*
D25*
X107495000Y-85100000D03*
X107495000Y-84300000D03*
D27*
X164825000Y-92650000D03*
X169350484Y-97175484D03*
D20*
X162762500Y-85550000D03*
X161037500Y-85550000D03*
D28*
X120050000Y-96400000D03*
X128950000Y-96400000D03*
D29*
X113800000Y-87500000D03*
X113800000Y-89800000D03*
D11*
X106087500Y-79650000D03*
X109012500Y-79650000D03*
D30*
X164962258Y-82937742D03*
X169487742Y-78412258D03*
D31*
X175799606Y-95354250D03*
X175092499Y-94647143D03*
X174385393Y-93940036D03*
X173678286Y-93232930D03*
X172971179Y-92525823D03*
X172264072Y-91818716D03*
X171556966Y-91111609D03*
X170849859Y-90404502D03*
D32*
X169308366Y-86508344D03*
X170015473Y-85801237D03*
X170722579Y-85094130D03*
X171429686Y-84387024D03*
X172136793Y-83679917D03*
X175672327Y-80144383D03*
X176379434Y-79437276D03*
X177086541Y-78730169D03*
D31*
X181315039Y-79939322D03*
X182022146Y-80646429D03*
X182729253Y-81353536D03*
X183436359Y-82060642D03*
D32*
X187551721Y-89195350D03*
X186844614Y-89902457D03*
X186137507Y-90609563D03*
X185430401Y-91316670D03*
X184723294Y-92023777D03*
X184016187Y-92730884D03*
X183309080Y-93437990D03*
X182601973Y-94145097D03*
X181894867Y-94852204D03*
X181187760Y-95559311D03*
X180480653Y-96266418D03*
X179773546Y-96973524D03*
M02*
