%TF.GenerationSoftware,KiCad,Pcbnew,7.0.1-0*%
%TF.CreationDate,2023-09-15T13:21:47+02:00*%
%TF.ProjectId,letterboxsensor,6c657474-6572-4626-9f78-73656e736f72,rev?*%
%TF.SameCoordinates,Original*%
%TF.FileFunction,Copper,L1,Top*%
%TF.FilePolarity,Positive*%
%FSLAX46Y46*%
G04 Gerber Fmt 4.6, Leading zero omitted, Abs format (unit mm)*
G04 Created by KiCad (PCBNEW 7.0.1-0) date 2023-09-15 13:21:47*
%MOMM*%
%LPD*%
G01*
G04 APERTURE LIST*
G04 Aperture macros list*
%AMRoundRect*
0 Rectangle with rounded corners*
0 $1 Rounding radius*
0 $2 $3 $4 $5 $6 $7 $8 $9 X,Y pos of 4 corners*
0 Add a 4 corners polygon primitive as box body*
4,1,4,$2,$3,$4,$5,$6,$7,$8,$9,$2,$3,0*
0 Add four circle primitives for the rounded corners*
1,1,$1+$1,$2,$3*
1,1,$1+$1,$4,$5*
1,1,$1+$1,$6,$7*
1,1,$1+$1,$8,$9*
0 Add four rect primitives between the rounded corners*
20,1,$1+$1,$2,$3,$4,$5,0*
20,1,$1+$1,$4,$5,$6,$7,0*
20,1,$1+$1,$6,$7,$8,$9,0*
20,1,$1+$1,$8,$9,$2,$3,0*%
%AMRotRect*
0 Rectangle, with rotation*
0 The origin of the aperture is its center*
0 $1 length*
0 $2 width*
0 $3 Rotation angle, in degrees counterclockwise*
0 Add horizontal line*
21,1,$1,$2,0,0,$3*%
G04 Aperture macros list end*
%TA.AperFunction,EtchedComponent*%
%ADD10C,0.100000*%
%TD*%
%TA.AperFunction,SMDPad,CuDef*%
%ADD11R,2.600000X0.600000*%
%TD*%
%TA.AperFunction,SMDPad,CuDef*%
%ADD12RoundRect,0.250000X-0.312500X-0.625000X0.312500X-0.625000X0.312500X0.625000X-0.312500X0.625000X0*%
%TD*%
%TA.AperFunction,SMDPad,CuDef*%
%ADD13RoundRect,0.250000X0.312500X0.625000X-0.312500X0.625000X-0.312500X-0.625000X0.312500X-0.625000X0*%
%TD*%
%TA.AperFunction,SMDPad,CuDef*%
%ADD14R,2.500000X2.200000*%
%TD*%
%TA.AperFunction,SMDPad,CuDef*%
%ADD15R,1.550000X2.200000*%
%TD*%
%TA.AperFunction,SMDPad,CuDef*%
%ADD16RoundRect,0.237500X-0.237500X0.300000X-0.237500X-0.300000X0.237500X-0.300000X0.237500X0.300000X0*%
%TD*%
%TA.AperFunction,SMDPad,CuDef*%
%ADD17RoundRect,0.218750X0.218750X0.256250X-0.218750X0.256250X-0.218750X-0.256250X0.218750X-0.256250X0*%
%TD*%
%TA.AperFunction,SMDPad,CuDef*%
%ADD18R,0.400000X0.600000*%
%TD*%
%TA.AperFunction,SMDPad,CuDef*%
%ADD19R,2.540000X3.510000*%
%TD*%
%TA.AperFunction,SMDPad,CuDef*%
%ADD20RoundRect,0.250000X0.250000X0.750000X-0.250000X0.750000X-0.250000X-0.750000X0.250000X-0.750000X0*%
%TD*%
%TA.AperFunction,SMDPad,CuDef*%
%ADD21RoundRect,0.237500X-0.300000X-0.237500X0.300000X-0.237500X0.300000X0.237500X-0.300000X0.237500X0*%
%TD*%
%TA.AperFunction,SMDPad,CuDef*%
%ADD22RoundRect,0.237500X0.300000X0.237500X-0.300000X0.237500X-0.300000X-0.237500X0.300000X-0.237500X0*%
%TD*%
%TA.AperFunction,SMDPad,CuDef*%
%ADD23R,2.477223X0.426984*%
%TD*%
%TA.AperFunction,SMDPad,CuDef*%
%ADD24RoundRect,0.213492X1.025119X0.000000X-1.025119X0.000000X-1.025119X0.000000X1.025119X0.000000X0*%
%TD*%
%TA.AperFunction,SMDPad,CuDef*%
%ADD25RoundRect,0.250000X0.625000X-0.312500X0.625000X0.312500X-0.625000X0.312500X-0.625000X-0.312500X0*%
%TD*%
%TA.AperFunction,SMDPad,CuDef*%
%ADD26RoundRect,0.250000X-0.250000X-0.750000X0.250000X-0.750000X0.250000X0.750000X-0.250000X0.750000X0*%
%TD*%
%TA.AperFunction,SMDPad,CuDef*%
%ADD27R,1.450000X0.600000*%
%TD*%
%TA.AperFunction,SMDPad,CuDef*%
%ADD28R,1.450000X0.300000*%
%TD*%
%TA.AperFunction,ComponentPad*%
%ADD29O,2.100000X1.000000*%
%TD*%
%TA.AperFunction,ComponentPad*%
%ADD30O,1.600000X1.000000*%
%TD*%
%TA.AperFunction,SMDPad,CuDef*%
%ADD31RoundRect,0.250000X-1.343503X-0.106066X-0.106066X-1.343503X1.343503X0.106066X0.106066X1.343503X0*%
%TD*%
%TA.AperFunction,SMDPad,CuDef*%
%ADD32R,1.500000X1.100000*%
%TD*%
%TA.AperFunction,SMDPad,CuDef*%
%ADD33RoundRect,0.250000X-0.350000X0.275000X-0.350000X-0.275000X0.350000X-0.275000X0.350000X0.275000X0*%
%TD*%
%TA.AperFunction,SMDPad,CuDef*%
%ADD34RoundRect,0.250000X0.106066X-1.343503X1.343503X-0.106066X-0.106066X1.343503X-1.343503X0.106066X0*%
%TD*%
%TA.AperFunction,SMDPad,CuDef*%
%ADD35RotRect,1.800000X0.700000X45.000000*%
%TD*%
%TA.AperFunction,SMDPad,CuDef*%
%ADD36RotRect,1.800000X0.700000X315.000000*%
%TD*%
%TA.AperFunction,ViaPad*%
%ADD37C,1.000000*%
%TD*%
%TA.AperFunction,ViaPad*%
%ADD38C,0.400000*%
%TD*%
%TA.AperFunction,ViaPad*%
%ADD39C,0.250000*%
%TD*%
%TA.AperFunction,Conductor*%
%ADD40C,0.400000*%
%TD*%
%TA.AperFunction,Conductor*%
%ADD41C,0.200000*%
%TD*%
%TA.AperFunction,Conductor*%
%ADD42C,0.250000*%
%TD*%
%TA.AperFunction,Conductor*%
%ADD43C,0.600000*%
%TD*%
G04 APERTURE END LIST*
D10*
X213600000Y-106500000D02*
X211600000Y-106500000D01*
X211600000Y-68500000D01*
X213600000Y-68500000D01*
X213600000Y-106500000D01*
%TA.AperFunction,EtchedComponent*%
G36*
X213600000Y-106500000D02*
G01*
X211600000Y-106500000D01*
X211600000Y-68500000D01*
X213600000Y-68500000D01*
X213600000Y-106500000D01*
G37*
%TD.AperFunction*%
X208600000Y-70500000D02*
X201600000Y-70500000D01*
X201600000Y-68500000D01*
X208600000Y-68500000D01*
X208600000Y-70500000D01*
%TA.AperFunction,EtchedComponent*%
G36*
X208600000Y-70500000D02*
G01*
X201600000Y-70500000D01*
X201600000Y-68500000D01*
X208600000Y-68500000D01*
X208600000Y-70500000D01*
G37*
%TD.AperFunction*%
X203600000Y-88500000D02*
X201600000Y-88500000D01*
X201600000Y-68500000D01*
X203600000Y-68500000D01*
X203600000Y-88500000D01*
%TA.AperFunction,EtchedComponent*%
G36*
X203600000Y-88500000D02*
G01*
X201600000Y-88500000D01*
X201600000Y-68500000D01*
X203600000Y-68500000D01*
X203600000Y-88500000D01*
G37*
%TD.AperFunction*%
X203600000Y-88500000D02*
X194600000Y-88500000D01*
X194600000Y-86500000D01*
X203600000Y-86500000D01*
X203600000Y-88500000D01*
%TA.AperFunction,EtchedComponent*%
G36*
X203600000Y-88500000D02*
G01*
X194600000Y-88500000D01*
X194600000Y-86500000D01*
X203600000Y-86500000D01*
X203600000Y-88500000D01*
G37*
%TD.AperFunction*%
X194600000Y-88500000D02*
X193600000Y-87750000D01*
X193600000Y-87250000D01*
X194600000Y-86500000D01*
X194600000Y-88500000D01*
%TA.AperFunction,EtchedComponent*%
G36*
X194600000Y-88500000D02*
G01*
X193600000Y-87750000D01*
X193600000Y-87250000D01*
X194600000Y-86500000D01*
X194600000Y-88500000D01*
G37*
%TD.AperFunction*%
X213600000Y-106500000D02*
X206600000Y-106500000D01*
X206600000Y-104500000D01*
X213600000Y-104500000D01*
X213600000Y-106500000D01*
%TA.AperFunction,EtchedComponent*%
G36*
X213600000Y-106500000D02*
G01*
X206600000Y-106500000D01*
X206600000Y-104500000D01*
X213600000Y-104500000D01*
X213600000Y-106500000D01*
G37*
%TD.AperFunction*%
X208600000Y-106500000D02*
X206600000Y-106500000D01*
X206600000Y-68500000D01*
X208600000Y-68500000D01*
X208600000Y-106500000D01*
%TA.AperFunction,EtchedComponent*%
G36*
X208600000Y-106500000D02*
G01*
X206600000Y-106500000D01*
X206600000Y-68500000D01*
X208600000Y-68500000D01*
X208600000Y-106500000D01*
G37*
%TD.AperFunction*%
D11*
X111275400Y-72449600D03*
X111275400Y-73549600D03*
X116775400Y-73549600D03*
X116775400Y-72449600D03*
D12*
X114687500Y-76400000D03*
X111762500Y-76400000D03*
D13*
X186537500Y-74825000D03*
X183612500Y-74825000D03*
D14*
X186324600Y-71400000D03*
D15*
X183749600Y-71400000D03*
D16*
X191669200Y-89287500D03*
X191669200Y-91012500D03*
D17*
X192456700Y-87493600D03*
X190881700Y-87493600D03*
D18*
X193400000Y-87500000D03*
D19*
X156480000Y-89275000D03*
X127120000Y-89275000D03*
D12*
X121262500Y-73500000D03*
X124187500Y-73500000D03*
D20*
X157975000Y-78650000D03*
X153575000Y-78650000D03*
D12*
X114687500Y-79650000D03*
X111762500Y-79650000D03*
D14*
X106300000Y-96400000D03*
D15*
X108875000Y-96400000D03*
D13*
X176987500Y-101650000D03*
X179912500Y-101650000D03*
X111762500Y-96400000D03*
X114687500Y-96400000D03*
D21*
X112062500Y-85975000D03*
X113787500Y-85975000D03*
D11*
X183900000Y-101100000D03*
X183900000Y-102200000D03*
X189400000Y-102200000D03*
X189400000Y-101100000D03*
D12*
X157650000Y-100387500D03*
X160575000Y-100387500D03*
D13*
X160575000Y-97237500D03*
X157650000Y-97237500D03*
D22*
X162762500Y-89650000D03*
X161037500Y-89650000D03*
D23*
X121717041Y-89825000D03*
D24*
X121717041Y-89190000D03*
X121717041Y-88555000D03*
X121717041Y-87920000D03*
X121717041Y-87285000D03*
X121717041Y-86650000D03*
X121717041Y-86015000D03*
X121717041Y-85380000D03*
X116890558Y-85380000D03*
X116890558Y-86015000D03*
X116890558Y-86650000D03*
X116890558Y-87285000D03*
X116890558Y-87920000D03*
X116890558Y-88555000D03*
X116890558Y-89190000D03*
X116890558Y-89825000D03*
D25*
X111325000Y-91712500D03*
X111325000Y-88787500D03*
D12*
X188575000Y-97950000D03*
X185650000Y-97950000D03*
X111762500Y-82675000D03*
X114687500Y-82675000D03*
D26*
X125825000Y-78650000D03*
X130225000Y-78650000D03*
D27*
X107495000Y-84300000D03*
X107495000Y-85100000D03*
D28*
X107495000Y-86250000D03*
X107495000Y-87250000D03*
X107495000Y-87750000D03*
X107495000Y-88750000D03*
D27*
X107495000Y-89900000D03*
X107495000Y-90700000D03*
X107495000Y-90700000D03*
X107495000Y-89900000D03*
D28*
X107495000Y-89250000D03*
X107495000Y-88250000D03*
X107495000Y-86750000D03*
X107495000Y-85750000D03*
D27*
X107495000Y-85100000D03*
X107495000Y-84300000D03*
D29*
X106770000Y-83180000D03*
D30*
X102600000Y-83180000D03*
D29*
X106770000Y-91820000D03*
D30*
X102600000Y-91820000D03*
D31*
X164825000Y-92650000D03*
X169350484Y-97175484D03*
D22*
X162762500Y-85550000D03*
X161037500Y-85550000D03*
D32*
X120050000Y-96400000D03*
X128950000Y-96400000D03*
D33*
X113800000Y-87500000D03*
X113800000Y-89800000D03*
D12*
X106087500Y-79650000D03*
X109012500Y-79650000D03*
D34*
X164962258Y-82937742D03*
X169487742Y-78412258D03*
D35*
X175799606Y-95354250D03*
X175092499Y-94647143D03*
X174385393Y-93940036D03*
X173678286Y-93232930D03*
X172971179Y-92525823D03*
X172264072Y-91818716D03*
X171556966Y-91111609D03*
X170849859Y-90404502D03*
D36*
X169308366Y-86508344D03*
X170015473Y-85801237D03*
X170722579Y-85094130D03*
X171429686Y-84387024D03*
X172136793Y-83679917D03*
X175672327Y-80144383D03*
X176379434Y-79437276D03*
X177086541Y-78730169D03*
D35*
X181315039Y-79939322D03*
X182022146Y-80646429D03*
X182729253Y-81353536D03*
X183436359Y-82060642D03*
D36*
X187551721Y-89195350D03*
X186844614Y-89902457D03*
X186137507Y-90609563D03*
X185430401Y-91316670D03*
X184723294Y-92023777D03*
X184016187Y-92730884D03*
X183309080Y-93437990D03*
X182601973Y-94145097D03*
X181894867Y-94852204D03*
X181187760Y-95559311D03*
X180480653Y-96266418D03*
X179773546Y-96973524D03*
D37*
X188550000Y-94975000D03*
X188550000Y-92435000D03*
D38*
X113225000Y-78050000D03*
X172000000Y-105000000D03*
X192000000Y-77000000D03*
X102000000Y-77000000D03*
X102000000Y-105000000D03*
X102000000Y-70000000D03*
X113200000Y-98000000D03*
X101000000Y-84000000D03*
X101000000Y-91000000D03*
X192000000Y-84000000D03*
X192000000Y-105000000D03*
X192000000Y-98000000D03*
X191700000Y-91000000D03*
X182000000Y-70000000D03*
X172000000Y-98000000D03*
X117750000Y-87925000D03*
X132000000Y-77000000D03*
X182000000Y-91000000D03*
X102000000Y-98000000D03*
X120875000Y-87294500D03*
X122100000Y-96800000D03*
X172000000Y-77000000D03*
X168050000Y-91000000D03*
X152000000Y-98000000D03*
X152000000Y-105000000D03*
X112000000Y-105000000D03*
X122000000Y-91000000D03*
X182000000Y-105000000D03*
X132000000Y-84000000D03*
X142975000Y-69650000D03*
X112000000Y-70000000D03*
X181700000Y-77000000D03*
X152000000Y-77000000D03*
X111325000Y-91625000D03*
X113280200Y-84000000D03*
X132000000Y-98000000D03*
X152000000Y-84000000D03*
X142000000Y-105000000D03*
X132000000Y-105000000D03*
X173800000Y-88075000D03*
X119303800Y-84000000D03*
X132000000Y-91000000D03*
X107850000Y-84295000D03*
X172000000Y-70000000D03*
X162000000Y-77000000D03*
X142000000Y-91000000D03*
X182000000Y-84000000D03*
X122000000Y-105000000D03*
X152000000Y-91000000D03*
X192000000Y-70000000D03*
X163975000Y-70000000D03*
X162000000Y-91000000D03*
X182000000Y-98000000D03*
X152000000Y-70000000D03*
X162000000Y-105000000D03*
X132000000Y-70000000D03*
X141150000Y-98375000D03*
X123000000Y-84000000D03*
X162000000Y-84000000D03*
X122000000Y-77000000D03*
X142000000Y-84000000D03*
X122000000Y-70000000D03*
X107850000Y-90695000D03*
X142000000Y-77000000D03*
X121725000Y-89825000D03*
X179775000Y-97000000D03*
X121725000Y-87925000D03*
X180500000Y-96275000D03*
D39*
X107500000Y-86750000D03*
X107497451Y-87753742D03*
D40*
X120050000Y-88964313D02*
X120459313Y-88555000D01*
D41*
X120050000Y-96400000D02*
X114687500Y-96400000D01*
D40*
X120050000Y-96400000D02*
X120050000Y-88964313D01*
X128950000Y-96400000D02*
X131300000Y-96400000D01*
X131300000Y-96400000D02*
X138425000Y-89275000D01*
D41*
X111762500Y-96400000D02*
X108875000Y-96400000D01*
X116890558Y-88555000D02*
X115774252Y-88555000D01*
X115774252Y-88555000D02*
X115325000Y-89004252D01*
X115325000Y-89004252D02*
X115325000Y-91650000D01*
X115325000Y-91650000D02*
X113125000Y-93850000D01*
X113125000Y-93850000D02*
X109000000Y-93850000D01*
X109000000Y-93850000D02*
X106450000Y-96400000D01*
X106450000Y-96400000D02*
X106300000Y-96400000D01*
X130225000Y-78650000D02*
X132700000Y-78650000D01*
X132700000Y-78650000D02*
X138425000Y-84375000D01*
X138425000Y-84375000D02*
X138425000Y-89275000D01*
X114687500Y-79415600D02*
X114696900Y-79425000D01*
X114696900Y-79425000D02*
X118150000Y-79425000D01*
X118150000Y-79425000D02*
X121717041Y-82992041D01*
X121717041Y-82992041D02*
X121717041Y-85380000D01*
D40*
X138425000Y-89275000D02*
X140875000Y-89275000D01*
D41*
X111275400Y-72449600D02*
X112549600Y-72449600D01*
X112549600Y-72449600D02*
X112925000Y-72825000D01*
X112925000Y-72825000D02*
X112925000Y-73975000D01*
X112925000Y-73975000D02*
X111762500Y-75137500D01*
X111762500Y-75137500D02*
X111762500Y-76400000D01*
X157650000Y-97237500D02*
X155300000Y-94887500D01*
X155300000Y-90455000D02*
X156480000Y-89275000D01*
X155300000Y-94887500D02*
X155300000Y-90455000D01*
X160575000Y-97237500D02*
X164762500Y-97237500D01*
X164762500Y-97237500D02*
X168400000Y-93600000D01*
X168400000Y-93600000D02*
X169068575Y-93600000D01*
X169068575Y-93600000D02*
X171556966Y-91111609D01*
X107495000Y-86250000D02*
X108520000Y-86250000D01*
X108520000Y-86250000D02*
X109000000Y-85770000D01*
X109000000Y-85770000D02*
X109000000Y-83843628D01*
X110175000Y-82668628D02*
X110175000Y-80812500D01*
X109000000Y-83843628D02*
X110175000Y-82668628D01*
X110175000Y-80812500D02*
X109012500Y-79650000D01*
X107495000Y-87250000D02*
X108383604Y-87250000D01*
X108383604Y-87250000D02*
X109400000Y-86233604D01*
X110575000Y-82834314D02*
X110575000Y-80825000D01*
X109400000Y-86233604D02*
X109400000Y-84009314D01*
X111750000Y-79650000D02*
X111762500Y-79650000D01*
X109400000Y-84009314D02*
X110575000Y-82834314D01*
X110575000Y-80825000D02*
X111750000Y-79650000D01*
X107495000Y-89250000D02*
X110862500Y-89250000D01*
X110862500Y-89250000D02*
X111325000Y-88787500D01*
D42*
X107495000Y-89900000D02*
X107670000Y-89725000D01*
X113725000Y-89725000D02*
X113800000Y-89800000D01*
X107670000Y-89725000D02*
X113725000Y-89725000D01*
X116890558Y-87285000D02*
X115690000Y-87285000D01*
X115690000Y-87285000D02*
X115475000Y-87500000D01*
X115475000Y-87500000D02*
X113800000Y-87500000D01*
D41*
X113812500Y-85975000D02*
X113812500Y-87487500D01*
D42*
X184016187Y-92730884D02*
X184560303Y-93275000D01*
X184560303Y-93275000D02*
X187400000Y-93275000D01*
X188550000Y-94425000D02*
X188550000Y-94975000D01*
X187400000Y-93275000D02*
X188550000Y-94425000D01*
D41*
X183749600Y-74687900D02*
X183749600Y-71400000D01*
X175672327Y-80144383D02*
X175672327Y-80577673D01*
X170975000Y-82025000D02*
X160374600Y-71424600D01*
X114700000Y-76362500D02*
X114687500Y-76375000D01*
X174225000Y-82025000D02*
X170975000Y-82025000D01*
X175672327Y-80577673D02*
X174225000Y-82025000D01*
X160374600Y-71424600D02*
X115064004Y-71424600D01*
X115064004Y-71424600D02*
X114700000Y-71788604D01*
X114700000Y-71788604D02*
X114700000Y-76362500D01*
X116775400Y-73549600D02*
X117900400Y-73549600D01*
X120825000Y-73500000D02*
X121262500Y-73500000D01*
X117900400Y-73549600D02*
X118825400Y-72624600D01*
X118825400Y-72624600D02*
X119949600Y-72624600D01*
X119949600Y-72624600D02*
X120825000Y-73500000D01*
X111300000Y-82675000D02*
X111762500Y-82675000D01*
X109800000Y-84175000D02*
X111300000Y-82675000D01*
X109800000Y-86399289D02*
X109800000Y-84175000D01*
X108449290Y-87750000D02*
X109800000Y-86399289D01*
X107495000Y-87750000D02*
X108449290Y-87750000D01*
X183900000Y-101100000D02*
X181850000Y-101100000D01*
X181850000Y-101100000D02*
X181300000Y-101650000D01*
X181300000Y-101650000D02*
X179912500Y-101650000D01*
X183309080Y-93437990D02*
X183312990Y-93437990D01*
X183312990Y-93437990D02*
X186525000Y-96650000D01*
X186525000Y-96650000D02*
X186525000Y-99709314D01*
X186525000Y-99709314D02*
X187915686Y-101100000D01*
X187915686Y-101100000D02*
X189400000Y-101100000D01*
X176000000Y-101650000D02*
X176987500Y-101650000D01*
X173725000Y-99375000D02*
X176000000Y-101650000D01*
X173025000Y-94325000D02*
X173725000Y-95025000D01*
X173025000Y-93886216D02*
X173025000Y-94325000D01*
X173725000Y-95025000D02*
X173725000Y-99375000D01*
X173678286Y-93232930D02*
X173025000Y-93886216D01*
D43*
X190881700Y-87493600D02*
X190881700Y-88500000D01*
X190881700Y-88500000D02*
X191669200Y-89287500D01*
D41*
X186725000Y-100475000D02*
X186125000Y-99875000D01*
X186125000Y-99875000D02*
X186125000Y-98425000D01*
X186125000Y-98425000D02*
X185650000Y-97950000D01*
D42*
X184723294Y-92023777D02*
X185225070Y-92525553D01*
X185225070Y-92525553D02*
X188459447Y-92525553D01*
X188459447Y-92525553D02*
X188550000Y-92435000D01*
X185430401Y-91316670D02*
X185430401Y-91330401D01*
D41*
X171429686Y-84387024D02*
X171429686Y-84176744D01*
X171429686Y-84176744D02*
X159877542Y-72624600D01*
X159877542Y-72624600D02*
X129150400Y-72624600D01*
X129150400Y-72624600D02*
X125825000Y-75950000D01*
X125825000Y-75950000D02*
X125825000Y-78650000D01*
D40*
X140875000Y-89275000D02*
X156480000Y-89275000D01*
D42*
X140850000Y-89275000D02*
X140875000Y-89275000D01*
D41*
X111762500Y-79650000D02*
X111762500Y-79415600D01*
X111762500Y-82675000D02*
X111762500Y-82425000D01*
X114687500Y-82675000D02*
X115912500Y-82675000D01*
X115912500Y-82675000D02*
X116890558Y-83653058D01*
X116890558Y-83653058D02*
X116890558Y-85380000D01*
X174385393Y-93940036D02*
X174385393Y-93939607D01*
X174385393Y-93939607D02*
X186537500Y-81787500D01*
X186537500Y-81787500D02*
X186537500Y-74825000D01*
X175092499Y-94647143D02*
X175589642Y-94150000D01*
X175589642Y-94150000D02*
X176325000Y-94150000D01*
X176325000Y-94150000D02*
X178589663Y-96414663D01*
X178589663Y-96414663D02*
X178589663Y-96708881D01*
X178589663Y-96708881D02*
X182355782Y-100475000D01*
X182355782Y-100475000D02*
X186725000Y-100475000D01*
X188450000Y-102200000D02*
X189400000Y-102200000D01*
X186725000Y-100475000D02*
X188450000Y-102200000D01*
X160575000Y-100387500D02*
X160575000Y-97212500D01*
D43*
X161150000Y-87600000D02*
X162750000Y-87600000D01*
X156480000Y-89275000D02*
X157555000Y-89275000D01*
X162750000Y-87600000D02*
X168175000Y-87600000D01*
X159230000Y-87600000D02*
X161150000Y-87600000D01*
X168200000Y-87625000D02*
X169308366Y-86516634D01*
X169308366Y-86516634D02*
X169308366Y-86508344D01*
X164825000Y-91000000D02*
X168200000Y-87625000D01*
X165737742Y-82937742D02*
X169308344Y-86508344D01*
D40*
X168175000Y-87600000D02*
X168200000Y-87625000D01*
D43*
X164825000Y-92650000D02*
X164825000Y-91000000D01*
X169308344Y-86508344D02*
X169308366Y-86508344D01*
X157555000Y-89275000D02*
X159230000Y-87600000D01*
X164962258Y-82937742D02*
X165737742Y-82937742D01*
D41*
X162762500Y-85550000D02*
X162762500Y-89650000D01*
D43*
X192456700Y-87493600D02*
X194000000Y-87493600D01*
D41*
X170245803Y-83558547D02*
X165337256Y-78650000D01*
X165337256Y-78650000D02*
X157975000Y-78650000D01*
X170245803Y-84617354D02*
X170245803Y-83558547D01*
X170722579Y-85094130D02*
X170245803Y-84617354D01*
D43*
X189253471Y-87493600D02*
X190881700Y-87493600D01*
X187551721Y-89195350D02*
X189253471Y-87493600D01*
D41*
X170818628Y-83000000D02*
X160043228Y-72224600D01*
X171456876Y-83000000D02*
X170818628Y-83000000D01*
X172136793Y-83679917D02*
X171456876Y-83000000D01*
X117000400Y-72224600D02*
X116775400Y-72449600D01*
X160043228Y-72224600D02*
X117000400Y-72224600D01*
D42*
X106400000Y-89520051D02*
X106779949Y-89900000D01*
X107495000Y-85100000D02*
X106800000Y-85100000D01*
X106400000Y-85500000D02*
X106400000Y-86898959D01*
X106400000Y-88601040D02*
X106400000Y-89520051D01*
X106800000Y-85100000D02*
X106400000Y-85500000D01*
X106779949Y-89900000D02*
X107495000Y-89900000D01*
X106045000Y-87253959D02*
X106045000Y-88246040D01*
X106045000Y-88246040D02*
X106400000Y-88601040D01*
X106400000Y-86898959D02*
X106045000Y-87253959D01*
D41*
X107495000Y-87250000D02*
X106650000Y-87250000D01*
X106470000Y-88070000D02*
X106650000Y-88250000D01*
X106650000Y-87250000D02*
X106470000Y-87430000D01*
X106650000Y-88250000D02*
X107495000Y-88250000D01*
X106470000Y-87430000D02*
X106470000Y-88070000D01*
D40*
X116890558Y-86650000D02*
X116890558Y-86015000D01*
X118554313Y-86650000D02*
X116890558Y-86650000D01*
X121717041Y-88555000D02*
X120459313Y-88555000D01*
X120459313Y-88555000D02*
X118554313Y-86650000D01*
D41*
X171900000Y-82450000D02*
X170834314Y-82450000D01*
X173375000Y-83925000D02*
X171900000Y-82450000D01*
X170834314Y-82450000D02*
X160208914Y-71824600D01*
X160208914Y-71824600D02*
X115300400Y-71824600D01*
X115449600Y-73549600D02*
X116775400Y-73549600D01*
X170849859Y-90404502D02*
X172800000Y-88454361D01*
X115300400Y-71824600D02*
X115100000Y-72025000D01*
X115100000Y-73200000D02*
X115449600Y-73549600D01*
X172800000Y-84825000D02*
X173375000Y-84250000D01*
X173375000Y-84250000D02*
X173375000Y-83925000D01*
X172800000Y-88454361D02*
X172800000Y-84825000D01*
X115100000Y-72025000D02*
X115100000Y-73200000D01*
%TA.AperFunction,Conductor*%
G36*
X183965815Y-94951364D02*
G01*
X185366206Y-96351755D01*
X185400024Y-96413131D01*
X185395823Y-96483082D01*
X185354901Y-96539970D01*
X185289917Y-96566198D01*
X185183073Y-96577113D01*
X185014762Y-96632885D01*
X184863844Y-96725972D01*
X184738472Y-96851344D01*
X184718860Y-96883140D01*
X184645385Y-97002262D01*
X184589613Y-97170574D01*
X184586995Y-97196205D01*
X184579000Y-97274459D01*
X184579000Y-98625540D01*
X184589603Y-98729328D01*
X184589613Y-98729426D01*
X184645385Y-98897738D01*
X184698327Y-98983570D01*
X184738472Y-99048655D01*
X184863844Y-99174027D01*
X184863846Y-99174028D01*
X184863848Y-99174030D01*
X185014762Y-99267115D01*
X185183074Y-99322887D01*
X185286955Y-99333500D01*
X185390500Y-99333500D01*
X185453500Y-99350381D01*
X185499619Y-99396500D01*
X185516500Y-99459500D01*
X185516500Y-99740500D01*
X185499619Y-99803500D01*
X185453500Y-99849619D01*
X185390500Y-99866500D01*
X182660021Y-99866500D01*
X182611803Y-99856909D01*
X182570926Y-99829595D01*
X180829255Y-98087924D01*
X180796643Y-98031440D01*
X180796643Y-97966217D01*
X180829253Y-97909736D01*
X181051386Y-97687604D01*
X181089606Y-97640176D01*
X181089608Y-97640171D01*
X181095005Y-97633474D01*
X181113691Y-97606561D01*
X181140617Y-97587868D01*
X181163164Y-97569698D01*
X181194733Y-97544258D01*
X181758493Y-96980498D01*
X181796713Y-96933070D01*
X181796714Y-96933067D01*
X181802105Y-96926378D01*
X181820797Y-96899455D01*
X181847720Y-96880763D01*
X181854409Y-96875372D01*
X181854412Y-96875371D01*
X181901840Y-96837151D01*
X182465600Y-96273391D01*
X182503820Y-96225963D01*
X182503821Y-96225960D01*
X182509212Y-96219271D01*
X182527904Y-96192348D01*
X182554827Y-96173656D01*
X182561516Y-96168265D01*
X182561519Y-96168264D01*
X182608947Y-96130044D01*
X183172707Y-95566284D01*
X183210927Y-95518856D01*
X183210926Y-95518856D01*
X183216317Y-95512168D01*
X183235010Y-95485242D01*
X183261923Y-95466556D01*
X183268620Y-95461159D01*
X183268625Y-95461157D01*
X183316053Y-95422937D01*
X183787626Y-94951362D01*
X183844109Y-94918752D01*
X183909331Y-94918752D01*
X183965815Y-94951364D01*
G37*
%TD.AperFunction*%
%TA.AperFunction,Conductor*%
G36*
X107686000Y-83468881D02*
G01*
X107732119Y-83515000D01*
X107749000Y-83578000D01*
X107749000Y-84165500D01*
X107732119Y-84228500D01*
X107686000Y-84274619D01*
X107623000Y-84291500D01*
X107299691Y-84291500D01*
X107242488Y-84277767D01*
X107197755Y-84239561D01*
X107175242Y-84185211D01*
X107179858Y-84126564D01*
X107210596Y-84076405D01*
X107241000Y-84046001D01*
X107241000Y-83578000D01*
X107257881Y-83515000D01*
X107304000Y-83468881D01*
X107367000Y-83452000D01*
X107623000Y-83452000D01*
X107686000Y-83468881D01*
G37*
%TD.AperFunction*%
%TA.AperFunction,Conductor*%
G36*
X191185639Y-67580423D02*
G01*
X191484041Y-67666392D01*
X191497373Y-67671057D01*
X191646243Y-67732721D01*
X191795113Y-67794385D01*
X191807843Y-67800516D01*
X192003362Y-67908575D01*
X192089909Y-67956407D01*
X192101859Y-67963916D01*
X192364698Y-68150411D01*
X192375741Y-68159217D01*
X192616043Y-68373965D01*
X192626034Y-68383956D01*
X192840782Y-68624258D01*
X192849590Y-68635303D01*
X193036080Y-68898136D01*
X193043594Y-68910094D01*
X193199483Y-69192156D01*
X193205614Y-69204886D01*
X193328941Y-69502624D01*
X193333608Y-69515961D01*
X193422825Y-69825638D01*
X193425969Y-69839413D01*
X193479951Y-70157131D01*
X193481533Y-70171172D01*
X193499802Y-70496474D01*
X193500000Y-70503539D01*
X193500000Y-86559100D01*
X193483119Y-86622100D01*
X193437000Y-86668219D01*
X193374000Y-86685100D01*
X193201150Y-86685100D01*
X193135003Y-86666341D01*
X193129587Y-86663000D01*
X192984892Y-86573751D01*
X192984889Y-86573749D01*
X192823517Y-86520276D01*
X192786162Y-86516460D01*
X192723911Y-86510100D01*
X192723906Y-86510100D01*
X192189493Y-86510100D01*
X192102674Y-86518969D01*
X192089886Y-86520276D01*
X191928508Y-86573751D01*
X191882888Y-86601890D01*
X191783809Y-86663002D01*
X191758295Y-86688517D01*
X191701811Y-86721129D01*
X191636589Y-86721129D01*
X191580105Y-86688517D01*
X191554590Y-86663002D01*
X191409889Y-86573749D01*
X191248517Y-86520276D01*
X191211162Y-86516460D01*
X191148911Y-86510100D01*
X191148906Y-86510100D01*
X190614493Y-86510100D01*
X190527674Y-86518969D01*
X190514886Y-86520276D01*
X190353508Y-86573751D01*
X190208813Y-86663000D01*
X190208812Y-86663000D01*
X190203397Y-86666341D01*
X190137250Y-86685100D01*
X189162374Y-86685100D01*
X189124725Y-86693692D01*
X189110803Y-86696057D01*
X189072424Y-86700382D01*
X189035972Y-86713137D01*
X189022400Y-86717047D01*
X188984750Y-86725641D01*
X188949953Y-86742397D01*
X188936905Y-86747802D01*
X188900456Y-86760556D01*
X188867755Y-86781103D01*
X188855394Y-86787935D01*
X188820598Y-86804692D01*
X188790403Y-86828772D01*
X188778883Y-86836946D01*
X188746190Y-86857488D01*
X188696160Y-86907516D01*
X188696157Y-86907521D01*
X187676171Y-87927507D01*
X187619687Y-87960119D01*
X187554465Y-87960119D01*
X187497981Y-87927507D01*
X187487987Y-87917513D01*
X187487984Y-87917510D01*
X187440555Y-87879290D01*
X187307546Y-87818547D01*
X187307544Y-87818546D01*
X187307543Y-87818546D01*
X187162812Y-87797737D01*
X187018080Y-87818546D01*
X186885068Y-87879290D01*
X186837635Y-87917514D01*
X186273885Y-88481264D01*
X186231467Y-88533901D01*
X186211260Y-88563005D01*
X186186177Y-88580422D01*
X186130853Y-88625004D01*
X186028612Y-88727245D01*
X186132229Y-88830861D01*
X186155806Y-88863557D01*
X186167851Y-88902025D01*
X186174917Y-88951172D01*
X186174917Y-88951173D01*
X186174918Y-88951175D01*
X186235661Y-89084184D01*
X186273881Y-89131613D01*
X187615458Y-90473190D01*
X187632211Y-90486690D01*
X187662886Y-90511410D01*
X187795895Y-90572153D01*
X187815910Y-90575030D01*
X187845045Y-90579219D01*
X187883513Y-90591264D01*
X187916210Y-90614842D01*
X188019824Y-90718457D01*
X188122064Y-90616219D01*
X188166659Y-90560879D01*
X188184063Y-90535811D01*
X188213159Y-90515611D01*
X188218370Y-90511410D01*
X188218373Y-90511410D01*
X188265801Y-90473190D01*
X188829561Y-89909430D01*
X188867781Y-89862002D01*
X188928524Y-89728993D01*
X188949333Y-89584259D01*
X188928524Y-89439525D01*
X188867781Y-89306516D01*
X188829561Y-89259087D01*
X188819563Y-89249088D01*
X188786951Y-89192605D01*
X188786951Y-89127383D01*
X188819561Y-89070900D01*
X189551458Y-88339004D01*
X189592336Y-88311691D01*
X189640554Y-88302100D01*
X189947200Y-88302100D01*
X190010200Y-88318981D01*
X190056319Y-88365100D01*
X190073200Y-88428100D01*
X190073200Y-88591097D01*
X190080179Y-88621676D01*
X190081792Y-88628740D01*
X190084159Y-88642669D01*
X190088483Y-88681050D01*
X190101235Y-88717494D01*
X190105145Y-88731064D01*
X190113740Y-88768718D01*
X190130496Y-88803512D01*
X190135901Y-88816560D01*
X190140905Y-88830861D01*
X190148658Y-88853018D01*
X190169199Y-88885708D01*
X190176035Y-88898076D01*
X190183143Y-88912835D01*
X190192791Y-88932870D01*
X190216873Y-88963068D01*
X190225040Y-88974578D01*
X190245589Y-89007281D01*
X190277897Y-89039589D01*
X190648795Y-89410487D01*
X190676109Y-89451363D01*
X190685700Y-89499581D01*
X190685700Y-89637207D01*
X190695077Y-89728993D01*
X190696138Y-89739381D01*
X190750991Y-89904920D01*
X190797023Y-89979549D01*
X190833867Y-90039283D01*
X190842542Y-90053346D01*
X190850453Y-90061257D01*
X190883065Y-90117738D01*
X190883067Y-90182961D01*
X190850457Y-90239446D01*
X190842938Y-90246964D01*
X190751446Y-90395295D01*
X190696631Y-90560716D01*
X190686200Y-90662829D01*
X190686200Y-90758500D01*
X192652200Y-90758500D01*
X192652200Y-90662829D01*
X192641768Y-90560716D01*
X192586953Y-90395295D01*
X192495460Y-90246963D01*
X192487945Y-90239448D01*
X192455333Y-90182962D01*
X192455335Y-90117737D01*
X192487946Y-90061257D01*
X192495858Y-90053346D01*
X192587409Y-89904920D01*
X192642262Y-89739381D01*
X192652700Y-89637213D01*
X192652699Y-88937788D01*
X192642262Y-88835619D01*
X192587409Y-88670080D01*
X192586894Y-88669245D01*
X192584939Y-88662630D01*
X192582776Y-88656100D01*
X192582989Y-88656029D01*
X192568165Y-88605847D01*
X192584111Y-88541692D01*
X192630343Y-88494441D01*
X192694135Y-88477099D01*
X192723906Y-88477099D01*
X192723910Y-88477099D01*
X192823514Y-88466924D01*
X192984892Y-88413449D01*
X193124628Y-88327258D01*
X193190773Y-88308500D01*
X193371833Y-88308500D01*
X193411673Y-88314964D01*
X193447422Y-88333692D01*
X193449595Y-88335321D01*
X193486696Y-88379772D01*
X193500000Y-88436125D01*
X193500000Y-104489492D01*
X193499802Y-104496557D01*
X193481534Y-104821844D01*
X193479952Y-104835883D01*
X193425976Y-105153586D01*
X193422832Y-105167362D01*
X193333625Y-105477020D01*
X193328959Y-105490356D01*
X193205642Y-105788085D01*
X193199512Y-105800815D01*
X193043636Y-106082868D01*
X193036119Y-106094832D01*
X192849650Y-106357652D01*
X192840841Y-106368698D01*
X192626117Y-106608993D01*
X192616126Y-106618985D01*
X192375845Y-106833730D01*
X192364800Y-106842539D01*
X192101995Y-107029028D01*
X192090031Y-107036546D01*
X191807993Y-107192442D01*
X191795264Y-107198573D01*
X191497542Y-107321914D01*
X191484206Y-107326581D01*
X191174556Y-107415811D01*
X191160784Y-107418956D01*
X191157383Y-107419534D01*
X191138649Y-107422718D01*
X191117538Y-107424500D01*
X103003539Y-107424500D01*
X102996474Y-107424302D01*
X102679625Y-107406507D01*
X102665585Y-107404925D01*
X102356215Y-107352362D01*
X102342439Y-107349218D01*
X102040897Y-107262345D01*
X102027560Y-107257678D01*
X101737640Y-107137589D01*
X101724916Y-107131461D01*
X101450271Y-106979671D01*
X101438307Y-106972154D01*
X101182373Y-106790559D01*
X101171326Y-106781749D01*
X100937342Y-106572648D01*
X100927351Y-106562657D01*
X100718250Y-106328673D01*
X100709440Y-106317626D01*
X100527845Y-106061692D01*
X100520328Y-106049728D01*
X100436562Y-105898164D01*
X100368534Y-105775076D01*
X100362413Y-105762366D01*
X100242320Y-105472436D01*
X100237654Y-105459102D01*
X100150781Y-105157560D01*
X100147637Y-105143784D01*
X100136035Y-105075500D01*
X100095074Y-104834414D01*
X100093492Y-104820374D01*
X100075698Y-104503526D01*
X100075500Y-104496461D01*
X100075500Y-102499999D01*
X102419407Y-102499999D01*
X102439756Y-102823432D01*
X102500481Y-103141766D01*
X102600626Y-103449979D01*
X102738610Y-103743210D01*
X102912254Y-104016831D01*
X103118828Y-104266537D01*
X103355069Y-104488380D01*
X103617246Y-104678864D01*
X103617251Y-104678866D01*
X103617250Y-104678866D01*
X103901237Y-104834989D01*
X104202553Y-104954289D01*
X104309604Y-104981775D01*
X104516444Y-105034883D01*
X104837960Y-105075500D01*
X104837963Y-105075500D01*
X105162037Y-105075500D01*
X105162040Y-105075500D01*
X105483555Y-105034883D01*
X105483554Y-105034883D01*
X105797447Y-104954289D01*
X106098763Y-104834989D01*
X106382750Y-104678866D01*
X106644931Y-104488380D01*
X106881171Y-104266537D01*
X107087743Y-104016834D01*
X107261390Y-103743210D01*
X107399374Y-103449979D01*
X107499518Y-103141767D01*
X107560243Y-102823434D01*
X107580592Y-102500000D01*
X107576151Y-102429421D01*
X107564422Y-102242992D01*
X107560243Y-102176566D01*
X107499518Y-101858233D01*
X107399374Y-101550021D01*
X107261390Y-101256790D01*
X107191398Y-101146500D01*
X107087745Y-100983168D01*
X106881171Y-100733462D01*
X106783241Y-100641500D01*
X156579500Y-100641500D01*
X156579500Y-101063003D01*
X156590106Y-101166828D01*
X156645840Y-101335022D01*
X156738867Y-101485842D01*
X156864157Y-101611132D01*
X157014977Y-101704159D01*
X157183171Y-101759893D01*
X157286997Y-101770500D01*
X157396000Y-101770500D01*
X157396000Y-100641500D01*
X157904000Y-100641500D01*
X157904000Y-101770500D01*
X158013003Y-101770500D01*
X158116828Y-101759893D01*
X158285022Y-101704159D01*
X158435842Y-101611132D01*
X158561132Y-101485842D01*
X158654159Y-101335022D01*
X158709893Y-101166828D01*
X158720500Y-101063003D01*
X158720500Y-100641500D01*
X157904000Y-100641500D01*
X157396000Y-100641500D01*
X156579500Y-100641500D01*
X106783241Y-100641500D01*
X106644930Y-100511619D01*
X106382753Y-100321135D01*
X106098762Y-100165010D01*
X106019177Y-100133500D01*
X156579500Y-100133500D01*
X157396000Y-100133500D01*
X157396000Y-99004500D01*
X157904000Y-99004500D01*
X157904000Y-100133500D01*
X158720500Y-100133500D01*
X158720500Y-99711997D01*
X158709893Y-99608171D01*
X158654159Y-99439977D01*
X158561132Y-99289157D01*
X158435842Y-99163867D01*
X158285022Y-99070840D01*
X158116828Y-99015106D01*
X158013003Y-99004500D01*
X157904000Y-99004500D01*
X157396000Y-99004500D01*
X157286997Y-99004500D01*
X157183171Y-99015106D01*
X157014977Y-99070840D01*
X156864157Y-99163867D01*
X156738867Y-99289157D01*
X156645840Y-99439977D01*
X156590106Y-99608171D01*
X156579500Y-99711997D01*
X156579500Y-100133500D01*
X106019177Y-100133500D01*
X105884768Y-100080284D01*
X105797447Y-100045711D01*
X105797444Y-100045710D01*
X105797441Y-100045709D01*
X105483555Y-99965116D01*
X105162040Y-99924500D01*
X105162037Y-99924500D01*
X104837963Y-99924500D01*
X104837960Y-99924500D01*
X104516444Y-99965116D01*
X104202558Y-100045709D01*
X103901237Y-100165010D01*
X103617246Y-100321135D01*
X103355069Y-100511619D01*
X103118828Y-100733462D01*
X102912254Y-100983168D01*
X102738610Y-101256789D01*
X102600626Y-101550020D01*
X102500481Y-101858233D01*
X102439756Y-102176567D01*
X102419407Y-102499999D01*
X100075500Y-102499999D01*
X100075500Y-97548638D01*
X104541500Y-97548638D01*
X104548011Y-97609201D01*
X104557160Y-97633730D01*
X104599111Y-97746205D01*
X104686738Y-97863261D01*
X104803794Y-97950888D01*
X104803795Y-97950888D01*
X104803796Y-97950889D01*
X104940799Y-98001989D01*
X105001362Y-98008500D01*
X107598638Y-98008500D01*
X107659201Y-98001989D01*
X107780968Y-97956571D01*
X107824999Y-97948627D01*
X107869027Y-97956570D01*
X107990799Y-98001989D01*
X108051362Y-98008500D01*
X109698638Y-98008500D01*
X109759201Y-98001989D01*
X109896204Y-97950889D01*
X110013261Y-97863261D01*
X110100889Y-97746204D01*
X110151989Y-97609201D01*
X110158500Y-97548638D01*
X110158500Y-97134500D01*
X110175381Y-97071500D01*
X110221500Y-97025381D01*
X110284500Y-97008500D01*
X110570868Y-97008500D01*
X110630130Y-97023306D01*
X110675464Y-97064245D01*
X110696215Y-97121693D01*
X110702113Y-97179426D01*
X110757885Y-97347738D01*
X110822188Y-97451989D01*
X110850972Y-97498655D01*
X110976344Y-97624027D01*
X110976346Y-97624028D01*
X110976348Y-97624030D01*
X111127262Y-97717115D01*
X111295574Y-97772887D01*
X111399455Y-97783500D01*
X112125544Y-97783499D01*
X112229426Y-97772887D01*
X112397738Y-97717115D01*
X112548652Y-97624030D01*
X112674030Y-97498652D01*
X112767115Y-97347738D01*
X112822887Y-97179426D01*
X112833500Y-97075545D01*
X112833499Y-95724456D01*
X112822887Y-95620574D01*
X112767115Y-95452262D01*
X112674030Y-95301348D01*
X112674028Y-95301346D01*
X112674027Y-95301344D01*
X112548655Y-95175972D01*
X112543352Y-95172701D01*
X112397738Y-95082885D01*
X112229426Y-95027113D01*
X112125545Y-95016500D01*
X112125540Y-95016500D01*
X111399459Y-95016500D01*
X111295573Y-95027113D01*
X111127262Y-95082885D01*
X110976344Y-95175972D01*
X110850972Y-95301344D01*
X110822188Y-95348011D01*
X110757885Y-95452262D01*
X110702113Y-95620574D01*
X110702112Y-95620578D01*
X110696214Y-95678307D01*
X110675462Y-95735756D01*
X110630128Y-95776694D01*
X110570867Y-95791500D01*
X110284500Y-95791500D01*
X110221500Y-95774619D01*
X110175381Y-95728500D01*
X110158500Y-95665500D01*
X110158500Y-95251362D01*
X110157294Y-95240144D01*
X110151989Y-95190799D01*
X110100889Y-95053796D01*
X110095315Y-95046350D01*
X110013261Y-94936738D01*
X109896205Y-94849111D01*
X109827702Y-94823561D01*
X109759201Y-94798011D01*
X109698638Y-94791500D01*
X109223239Y-94791500D01*
X109166036Y-94777767D01*
X109121303Y-94739561D01*
X109098790Y-94685211D01*
X109103406Y-94626564D01*
X109134144Y-94576405D01*
X109215144Y-94495405D01*
X109256021Y-94468091D01*
X109304239Y-94458500D01*
X113076864Y-94458500D01*
X113093307Y-94459577D01*
X113125000Y-94463750D01*
X113156693Y-94459577D01*
X113156703Y-94459577D01*
X113164884Y-94458500D01*
X113164885Y-94458500D01*
X113264456Y-94445391D01*
X113283851Y-94442838D01*
X113431876Y-94381524D01*
X113527072Y-94308477D01*
X113527072Y-94308476D01*
X113543629Y-94295772D01*
X113543632Y-94295769D01*
X113557510Y-94285120D01*
X113558987Y-94283987D01*
X113578457Y-94258611D01*
X113589309Y-94246238D01*
X115721235Y-92114312D01*
X115733619Y-92103452D01*
X115733788Y-92103322D01*
X115758987Y-92083987D01*
X115772948Y-92065791D01*
X115772952Y-92065788D01*
X115787219Y-92047196D01*
X115814610Y-92011498D01*
X115856523Y-91956878D01*
X115857262Y-91955094D01*
X115917838Y-91808851D01*
X115921464Y-91781305D01*
X115933500Y-91689885D01*
X115934578Y-91681697D01*
X115934578Y-91681690D01*
X115936841Y-91664500D01*
X115938750Y-91650000D01*
X115934577Y-91618307D01*
X115933500Y-91601864D01*
X115933500Y-90672992D01*
X115950381Y-90609992D01*
X115996500Y-90563873D01*
X116059500Y-90546992D01*
X117963783Y-90546992D01*
X117963788Y-90546992D01*
X118062671Y-90536890D01*
X118222882Y-90483801D01*
X118366532Y-90395197D01*
X118485875Y-90275854D01*
X118574479Y-90132204D01*
X118627568Y-89971993D01*
X118637670Y-89873110D01*
X118637670Y-89776890D01*
X118627568Y-89678007D01*
X118584199Y-89547128D01*
X118577804Y-89507501D01*
X118584200Y-89467867D01*
X118586478Y-89460995D01*
X118627568Y-89336993D01*
X118637670Y-89238110D01*
X118637670Y-89141890D01*
X118627568Y-89043007D01*
X118584199Y-88912128D01*
X118577804Y-88872501D01*
X118584200Y-88832867D01*
X118584735Y-88831254D01*
X118627568Y-88701993D01*
X118637670Y-88603110D01*
X118637670Y-88506890D01*
X118627568Y-88408007D01*
X118627567Y-88408004D01*
X118627567Y-88408002D01*
X118583938Y-88276339D01*
X118577542Y-88236706D01*
X118583937Y-88197073D01*
X118627074Y-88066891D01*
X118631841Y-88020231D01*
X118658068Y-87955247D01*
X118714956Y-87914325D01*
X118784907Y-87910123D01*
X118846284Y-87943941D01*
X119392594Y-88490251D01*
X119419416Y-88529958D01*
X119429473Y-88576809D01*
X119421311Y-88624027D01*
X119396482Y-88689495D01*
X119393570Y-88696524D01*
X119368611Y-88751981D01*
X119366771Y-88762023D01*
X119360651Y-88783975D01*
X119357035Y-88793510D01*
X119349705Y-88853867D01*
X119348561Y-88861384D01*
X119337597Y-88921219D01*
X119341270Y-88981923D01*
X119341500Y-88989531D01*
X119341500Y-95218629D01*
X119326799Y-95277694D01*
X119286125Y-95322975D01*
X119228970Y-95343907D01*
X119200477Y-95346970D01*
X119190799Y-95348011D01*
X119151143Y-95362802D01*
X119053794Y-95399111D01*
X118936738Y-95486738D01*
X118849111Y-95603793D01*
X118809673Y-95709533D01*
X118782807Y-95752450D01*
X118741217Y-95781327D01*
X118691617Y-95791500D01*
X115879132Y-95791500D01*
X115819870Y-95776694D01*
X115774536Y-95735755D01*
X115753784Y-95678305D01*
X115751105Y-95652078D01*
X115747887Y-95620574D01*
X115692115Y-95452262D01*
X115599030Y-95301348D01*
X115599028Y-95301346D01*
X115599027Y-95301344D01*
X115473655Y-95175972D01*
X115468352Y-95172701D01*
X115322738Y-95082885D01*
X115154426Y-95027113D01*
X115050545Y-95016500D01*
X115050540Y-95016500D01*
X114324459Y-95016500D01*
X114220573Y-95027113D01*
X114052262Y-95082885D01*
X113901344Y-95175972D01*
X113775972Y-95301344D01*
X113747188Y-95348011D01*
X113682885Y-95452262D01*
X113627113Y-95620574D01*
X113619440Y-95695684D01*
X113616500Y-95724459D01*
X113616500Y-97075540D01*
X113624926Y-97158014D01*
X113627113Y-97179426D01*
X113682885Y-97347738D01*
X113747188Y-97451989D01*
X113775972Y-97498655D01*
X113901344Y-97624027D01*
X113901346Y-97624028D01*
X113901348Y-97624030D01*
X114052262Y-97717115D01*
X114220574Y-97772887D01*
X114324455Y-97783500D01*
X115050544Y-97783499D01*
X115154426Y-97772887D01*
X115322738Y-97717115D01*
X115473652Y-97624030D01*
X115599030Y-97498652D01*
X115692115Y-97347738D01*
X115747887Y-97179426D01*
X115751622Y-97142868D01*
X115753786Y-97121693D01*
X115774538Y-97064244D01*
X115819872Y-97023306D01*
X115879133Y-97008500D01*
X118691617Y-97008500D01*
X118741217Y-97018673D01*
X118782807Y-97047550D01*
X118809672Y-97090465D01*
X118817854Y-97112402D01*
X118849111Y-97196206D01*
X118936738Y-97313261D01*
X119053794Y-97400888D01*
X119053795Y-97400888D01*
X119053796Y-97400889D01*
X119190799Y-97451989D01*
X119251362Y-97458500D01*
X120848638Y-97458500D01*
X120909201Y-97451989D01*
X121046204Y-97400889D01*
X121163261Y-97313261D01*
X121250889Y-97196204D01*
X121301989Y-97059201D01*
X121308500Y-96998638D01*
X127691500Y-96998638D01*
X127698011Y-97059201D01*
X127717854Y-97112402D01*
X127749111Y-97196205D01*
X127836738Y-97313261D01*
X127953794Y-97400888D01*
X127953795Y-97400888D01*
X127953796Y-97400889D01*
X128090799Y-97451989D01*
X128151362Y-97458500D01*
X129748638Y-97458500D01*
X129809201Y-97451989D01*
X129946204Y-97400889D01*
X130063261Y-97313261D01*
X130150889Y-97196204D01*
X130153030Y-97190465D01*
X130179896Y-97147549D01*
X130221486Y-97118673D01*
X130271085Y-97108500D01*
X131274782Y-97108500D01*
X131282390Y-97108730D01*
X131343091Y-97112402D01*
X131343091Y-97112401D01*
X131343093Y-97112402D01*
X131402941Y-97101434D01*
X131410398Y-97100299D01*
X131470801Y-97092965D01*
X131480328Y-97089351D01*
X131502294Y-97083227D01*
X131512329Y-97081389D01*
X131567797Y-97056423D01*
X131574802Y-97053522D01*
X131631675Y-97031954D01*
X131640069Y-97026159D01*
X131659926Y-97014960D01*
X131669226Y-97010775D01*
X131717140Y-96973235D01*
X131723179Y-96968791D01*
X131773273Y-96934215D01*
X131813612Y-96888680D01*
X131818811Y-96883157D01*
X138681564Y-90020405D01*
X138722442Y-89993091D01*
X138770660Y-89983500D01*
X140832141Y-89983500D01*
X140917859Y-89983500D01*
X154575500Y-89983500D01*
X154638500Y-90000381D01*
X154684619Y-90046500D01*
X154701500Y-90109500D01*
X154701500Y-90330899D01*
X154700422Y-90347345D01*
X154690422Y-90423303D01*
X154690422Y-90423309D01*
X154686250Y-90455000D01*
X154690142Y-90484567D01*
X154690422Y-90486690D01*
X154691500Y-90503136D01*
X154691500Y-94839364D01*
X154690422Y-94855810D01*
X154686250Y-94887499D01*
X154690422Y-94919190D01*
X154690422Y-94919197D01*
X154699556Y-94988578D01*
X154707161Y-95046350D01*
X154768476Y-95194378D01*
X154841521Y-95289572D01*
X154841524Y-95289574D01*
X154866010Y-95321484D01*
X154866011Y-95321485D01*
X154866013Y-95321487D01*
X154891379Y-95340951D01*
X154903769Y-95351818D01*
X156542095Y-96990144D01*
X156569409Y-97031021D01*
X156579000Y-97079239D01*
X156579000Y-97913040D01*
X156583715Y-97959193D01*
X156589613Y-98016926D01*
X156645385Y-98185238D01*
X156656958Y-98204000D01*
X156738472Y-98336155D01*
X156863844Y-98461527D01*
X156863846Y-98461528D01*
X156863848Y-98461530D01*
X157014762Y-98554615D01*
X157183074Y-98610387D01*
X157286955Y-98621000D01*
X158013044Y-98620999D01*
X158116926Y-98610387D01*
X158285238Y-98554615D01*
X158436152Y-98461530D01*
X158561530Y-98336152D01*
X158654615Y-98185238D01*
X158710387Y-98016926D01*
X158721000Y-97913045D01*
X158720999Y-96561956D01*
X158710387Y-96458074D01*
X158654615Y-96289762D01*
X158561530Y-96138848D01*
X158561528Y-96138846D01*
X158561527Y-96138844D01*
X158436155Y-96013472D01*
X158436152Y-96013470D01*
X158285238Y-95920385D01*
X158116926Y-95864613D01*
X158013045Y-95854000D01*
X158013040Y-95854000D01*
X157286959Y-95854000D01*
X157239420Y-95858856D01*
X157201431Y-95862737D01*
X157146396Y-95856101D01*
X157099534Y-95826485D01*
X155945405Y-94672356D01*
X155918091Y-94631479D01*
X155908500Y-94583261D01*
X155908500Y-91664500D01*
X155925381Y-91601500D01*
X155971500Y-91555381D01*
X156034500Y-91538500D01*
X157798638Y-91538500D01*
X157859201Y-91531989D01*
X157996204Y-91480889D01*
X158113261Y-91393261D01*
X158200889Y-91276204D01*
X158251989Y-91139201D01*
X158258500Y-91078638D01*
X158258500Y-89904000D01*
X159992000Y-89904000D01*
X159992000Y-89937171D01*
X160002431Y-90039283D01*
X160057246Y-90204704D01*
X160148739Y-90353036D01*
X160271963Y-90476260D01*
X160420295Y-90567753D01*
X160585716Y-90622568D01*
X160687829Y-90633000D01*
X160783500Y-90633000D01*
X160783500Y-89904000D01*
X159992000Y-89904000D01*
X158258500Y-89904000D01*
X158258500Y-89767082D01*
X158268091Y-89718864D01*
X158295405Y-89677987D01*
X158577392Y-89396000D01*
X159992000Y-89396000D01*
X160783500Y-89396000D01*
X160783500Y-88667000D01*
X160687829Y-88667000D01*
X160585716Y-88677431D01*
X160420295Y-88732246D01*
X160271963Y-88823739D01*
X160148739Y-88946963D01*
X160057246Y-89095295D01*
X160002431Y-89260716D01*
X159992000Y-89362829D01*
X159992000Y-89396000D01*
X158577392Y-89396000D01*
X159527987Y-88445405D01*
X159568864Y-88418091D01*
X159617082Y-88408500D01*
X161104594Y-88408500D01*
X161195406Y-88408500D01*
X162028000Y-88408500D01*
X162091000Y-88425381D01*
X162137119Y-88471500D01*
X162154000Y-88534500D01*
X162154000Y-88655967D01*
X162138024Y-88717373D01*
X162094149Y-88763205D01*
X162045019Y-88793510D01*
X161996650Y-88823344D01*
X161988741Y-88831254D01*
X161932257Y-88863866D01*
X161867035Y-88863866D01*
X161810551Y-88831254D01*
X161803036Y-88823739D01*
X161654704Y-88732246D01*
X161489283Y-88677431D01*
X161387171Y-88667000D01*
X161291500Y-88667000D01*
X161291500Y-90633000D01*
X161387171Y-90633000D01*
X161489283Y-90622568D01*
X161654704Y-90567753D01*
X161803032Y-90476263D01*
X161810548Y-90468747D01*
X161867034Y-90436134D01*
X161932258Y-90436134D01*
X161988741Y-90468745D01*
X161996654Y-90476658D01*
X162145080Y-90568209D01*
X162310619Y-90623062D01*
X162412787Y-90633500D01*
X163112212Y-90633499D01*
X163214381Y-90623062D01*
X163379920Y-90568209D01*
X163528346Y-90476658D01*
X163651658Y-90353346D01*
X163743209Y-90204920D01*
X163798062Y-90039381D01*
X163808500Y-89937213D01*
X163808499Y-89362788D01*
X163798062Y-89260619D01*
X163743209Y-89095080D01*
X163651658Y-88946654D01*
X163651656Y-88946652D01*
X163651655Y-88946650D01*
X163528349Y-88823344D01*
X163528346Y-88823342D01*
X163430850Y-88763205D01*
X163386976Y-88717373D01*
X163371000Y-88655967D01*
X163371000Y-88534500D01*
X163387881Y-88471500D01*
X163434000Y-88425381D01*
X163497000Y-88408500D01*
X165968918Y-88408500D01*
X166026121Y-88422233D01*
X166070854Y-88460439D01*
X166093367Y-88514789D01*
X166088751Y-88573436D01*
X166058014Y-88623593D01*
X164317718Y-90363889D01*
X164258186Y-90423421D01*
X164188889Y-90492717D01*
X164168345Y-90525413D01*
X164160172Y-90536932D01*
X164136092Y-90567128D01*
X164119335Y-90601923D01*
X164112503Y-90614284D01*
X164091956Y-90646985D01*
X164079202Y-90683434D01*
X164073797Y-90696482D01*
X164057041Y-90731279D01*
X164048447Y-90768929D01*
X164044537Y-90782501D01*
X164031782Y-90818953D01*
X164027457Y-90857332D01*
X164025092Y-90871254D01*
X164016500Y-90908903D01*
X164016500Y-91096192D01*
X164006909Y-91144410D01*
X163979595Y-91185287D01*
X162909419Y-92255463D01*
X162887194Y-92282745D01*
X162843465Y-92336426D01*
X162783777Y-92455275D01*
X162763886Y-92494881D01*
X162722996Y-92667407D01*
X162722996Y-92844725D01*
X162763887Y-93017253D01*
X162843464Y-93175706D01*
X162909414Y-93256664D01*
X162909416Y-93256666D01*
X164218334Y-94565583D01*
X164299294Y-94631535D01*
X164457745Y-94711112D01*
X164457748Y-94711112D01*
X164457749Y-94711113D01*
X164630275Y-94752004D01*
X164630278Y-94752004D01*
X164807590Y-94752004D01*
X164807593Y-94752004D01*
X164912784Y-94727072D01*
X164980123Y-94711112D01*
X165138574Y-94631535D01*
X165219534Y-94565584D01*
X166740583Y-93044534D01*
X166806535Y-92963574D01*
X166886112Y-92805123D01*
X166897808Y-92755776D01*
X166927004Y-92632593D01*
X166927004Y-92455275D01*
X166886112Y-92282746D01*
X166886112Y-92282745D01*
X166824543Y-92160150D01*
X166806535Y-92124293D01*
X166740585Y-92043335D01*
X166341933Y-91644683D01*
X165921914Y-91224665D01*
X165889303Y-91168181D01*
X165889303Y-91102959D01*
X165921913Y-91046477D01*
X168803803Y-88164589D01*
X168863326Y-88105066D01*
X168863328Y-88105062D01*
X169188062Y-87780328D01*
X169244544Y-87747719D01*
X169309766Y-87747719D01*
X169366250Y-87780330D01*
X169372103Y-87786184D01*
X169419532Y-87824404D01*
X169552541Y-87885147D01*
X169697275Y-87905956D01*
X169842009Y-87885147D01*
X169975018Y-87824404D01*
X170022446Y-87786184D01*
X170586206Y-87222424D01*
X170624426Y-87174996D01*
X170624426Y-87174993D01*
X170628627Y-87169782D01*
X170648827Y-87140686D01*
X170673895Y-87123282D01*
X170729235Y-87078687D01*
X170831474Y-86976448D01*
X170727858Y-86872833D01*
X170704280Y-86840136D01*
X170692235Y-86801667D01*
X170692191Y-86801363D01*
X170685749Y-86756551D01*
X170685169Y-86752518D01*
X170624426Y-86619509D01*
X170592953Y-86580454D01*
X170586206Y-86572081D01*
X169244629Y-85230504D01*
X169197200Y-85192284D01*
X169189716Y-85188866D01*
X169104637Y-85150011D01*
X169067885Y-85124493D01*
X167101167Y-83157775D01*
X167073853Y-83116898D01*
X167064262Y-83068680D01*
X167064262Y-82955149D01*
X167023370Y-82782619D01*
X166943793Y-82624167D01*
X166877843Y-82543209D01*
X166506634Y-82172000D01*
X165356792Y-81022159D01*
X165275832Y-80956207D01*
X165117381Y-80876630D01*
X165117379Y-80876629D01*
X165117376Y-80876628D01*
X164944851Y-80835738D01*
X164944848Y-80835738D01*
X164767536Y-80835738D01*
X164767533Y-80835738D01*
X164595004Y-80876629D01*
X164436551Y-80956206D01*
X164355593Y-81022156D01*
X163046672Y-82331079D01*
X163019537Y-82364389D01*
X162980723Y-82412036D01*
X162907391Y-82558053D01*
X162901144Y-82570491D01*
X162860254Y-82743017D01*
X162860254Y-82920335D01*
X162901145Y-83092863D01*
X162980722Y-83251316D01*
X163017351Y-83296280D01*
X163046674Y-83332276D01*
X164567724Y-84853325D01*
X164648684Y-84919277D01*
X164807135Y-84998854D01*
X164807138Y-84998854D01*
X164807139Y-84998855D01*
X164979665Y-85039746D01*
X164979668Y-85039746D01*
X165156980Y-85039746D01*
X165156983Y-85039746D01*
X165260499Y-85015210D01*
X165329513Y-84998854D01*
X165487964Y-84919277D01*
X165568924Y-84853326D01*
X165950335Y-84471913D01*
X166006816Y-84439303D01*
X166072039Y-84439303D01*
X166128523Y-84471915D01*
X167924552Y-86267944D01*
X167950070Y-86304696D01*
X167980792Y-86371966D01*
X167992306Y-86397178D01*
X168030526Y-86444607D01*
X168030530Y-86444611D01*
X168044667Y-86458748D01*
X168077279Y-86515231D01*
X168077279Y-86580454D01*
X168044668Y-86636938D01*
X167927013Y-86754595D01*
X167886136Y-86781909D01*
X167837917Y-86791500D01*
X163497000Y-86791500D01*
X163434000Y-86774619D01*
X163387881Y-86728500D01*
X163371000Y-86665500D01*
X163371000Y-86544033D01*
X163386976Y-86482627D01*
X163430850Y-86436794D01*
X163528346Y-86376658D01*
X163651658Y-86253346D01*
X163743209Y-86104920D01*
X163798062Y-85939381D01*
X163808500Y-85837213D01*
X163808499Y-85262788D01*
X163798062Y-85160619D01*
X163743209Y-84995080D01*
X163651658Y-84846654D01*
X163651656Y-84846652D01*
X163651655Y-84846650D01*
X163528349Y-84723344D01*
X163528346Y-84723342D01*
X163379920Y-84631791D01*
X163254235Y-84590144D01*
X163214382Y-84576938D01*
X163197352Y-84575198D01*
X163112213Y-84566500D01*
X163112208Y-84566500D01*
X162412791Y-84566500D01*
X162310618Y-84576938D01*
X162145080Y-84631791D01*
X161996650Y-84723344D01*
X161988741Y-84731254D01*
X161932257Y-84763866D01*
X161867035Y-84763866D01*
X161810551Y-84731254D01*
X161803036Y-84723739D01*
X161654704Y-84632246D01*
X161489283Y-84577431D01*
X161387171Y-84567000D01*
X161291500Y-84567000D01*
X161291500Y-86533000D01*
X161387171Y-86533000D01*
X161489283Y-86522568D01*
X161654704Y-86467753D01*
X161803032Y-86376263D01*
X161810548Y-86368747D01*
X161867034Y-86336134D01*
X161932258Y-86336134D01*
X161988741Y-86368745D01*
X161996654Y-86376658D01*
X162094149Y-86436794D01*
X162138024Y-86482627D01*
X162154000Y-86544033D01*
X162154000Y-86665500D01*
X162137119Y-86728500D01*
X162091000Y-86774619D01*
X162028000Y-86791500D01*
X159138904Y-86791500D01*
X159101255Y-86800092D01*
X159087333Y-86802457D01*
X159048953Y-86806782D01*
X159012499Y-86819537D01*
X158998930Y-86823446D01*
X158961280Y-86832040D01*
X158926489Y-86848794D01*
X158913441Y-86854199D01*
X158876983Y-86866957D01*
X158844283Y-86887503D01*
X158831924Y-86894334D01*
X158797131Y-86911090D01*
X158766934Y-86935171D01*
X158755414Y-86943344D01*
X158722720Y-86963887D01*
X158672691Y-87013914D01*
X158672687Y-87013920D01*
X158394436Y-87292170D01*
X158332124Y-87326195D01*
X158261308Y-87321130D01*
X158204473Y-87278583D01*
X158113261Y-87156738D01*
X157996205Y-87069111D01*
X157914182Y-87038518D01*
X157859201Y-87018011D01*
X157798638Y-87011500D01*
X155161362Y-87011500D01*
X155100799Y-87018011D01*
X154963794Y-87069111D01*
X154846738Y-87156738D01*
X154759111Y-87273794D01*
X154708011Y-87410799D01*
X154701500Y-87471362D01*
X154701500Y-88440500D01*
X154684619Y-88503500D01*
X154638500Y-88549619D01*
X154575500Y-88566500D01*
X140917859Y-88566500D01*
X139159500Y-88566500D01*
X139096500Y-88549619D01*
X139050381Y-88503500D01*
X139033500Y-88440500D01*
X139033500Y-85804000D01*
X159992000Y-85804000D01*
X159992000Y-85837171D01*
X160002431Y-85939283D01*
X160057246Y-86104704D01*
X160148739Y-86253036D01*
X160271963Y-86376260D01*
X160420295Y-86467753D01*
X160585716Y-86522568D01*
X160687829Y-86533000D01*
X160783500Y-86533000D01*
X160783500Y-85804000D01*
X159992000Y-85804000D01*
X139033500Y-85804000D01*
X139033500Y-85296000D01*
X159992000Y-85296000D01*
X160783500Y-85296000D01*
X160783500Y-84567000D01*
X160687829Y-84567000D01*
X160585716Y-84577431D01*
X160420295Y-84632246D01*
X160271963Y-84723739D01*
X160148739Y-84846963D01*
X160057246Y-84995295D01*
X160002431Y-85160716D01*
X159992000Y-85262829D01*
X159992000Y-85296000D01*
X139033500Y-85296000D01*
X139033500Y-84423144D01*
X139034578Y-84406698D01*
X139037721Y-84382820D01*
X139038751Y-84375000D01*
X139017838Y-84216149D01*
X138956524Y-84068124D01*
X138956523Y-84068123D01*
X138956523Y-84068122D01*
X138878457Y-83966385D01*
X138878443Y-83966369D01*
X138858987Y-83941012D01*
X138833618Y-83921546D01*
X138821228Y-83910679D01*
X133814549Y-78904000D01*
X152567000Y-78904000D01*
X152567000Y-79450503D01*
X152577606Y-79554328D01*
X152633340Y-79722522D01*
X152726367Y-79873342D01*
X152851657Y-79998632D01*
X153002477Y-80091659D01*
X153170671Y-80147393D01*
X153274497Y-80158000D01*
X153321000Y-80158000D01*
X153321000Y-78904000D01*
X153829000Y-78904000D01*
X153829000Y-80158000D01*
X153875503Y-80158000D01*
X153979328Y-80147393D01*
X154147522Y-80091659D01*
X154298342Y-79998632D01*
X154423632Y-79873342D01*
X154516659Y-79722522D01*
X154572393Y-79554328D01*
X154583000Y-79450503D01*
X154583000Y-78904000D01*
X153829000Y-78904000D01*
X153321000Y-78904000D01*
X152567000Y-78904000D01*
X133814549Y-78904000D01*
X133306549Y-78396000D01*
X152567000Y-78396000D01*
X153321000Y-78396000D01*
X153321000Y-77142000D01*
X153829000Y-77142000D01*
X153829000Y-78396000D01*
X154583000Y-78396000D01*
X154583000Y-77849497D01*
X154572393Y-77745671D01*
X154516659Y-77577477D01*
X154423632Y-77426657D01*
X154298342Y-77301367D01*
X154147522Y-77208340D01*
X153979328Y-77152606D01*
X153875503Y-77142000D01*
X153829000Y-77142000D01*
X153321000Y-77142000D01*
X153274497Y-77142000D01*
X153170671Y-77152606D01*
X153002477Y-77208340D01*
X152851657Y-77301367D01*
X152726367Y-77426657D01*
X152633340Y-77577477D01*
X152577606Y-77745671D01*
X152567000Y-77849497D01*
X152567000Y-78396000D01*
X133306549Y-78396000D01*
X133164315Y-78253766D01*
X133153448Y-78241375D01*
X133153338Y-78241232D01*
X133133987Y-78216013D01*
X133102074Y-78191525D01*
X133102072Y-78191523D01*
X133006876Y-78118476D01*
X133006875Y-78118475D01*
X132890460Y-78070255D01*
X132858851Y-78057162D01*
X132858850Y-78057161D01*
X132858848Y-78057161D01*
X132839468Y-78054608D01*
X132839456Y-78054608D01*
X132825469Y-78052766D01*
X132731703Y-78040422D01*
X132731691Y-78040422D01*
X132700000Y-78036250D01*
X132668307Y-78040422D01*
X132651864Y-78041500D01*
X131359499Y-78041500D01*
X131296499Y-78024619D01*
X131250380Y-77978500D01*
X131233499Y-77915500D01*
X131233499Y-77849460D01*
X131233499Y-77849456D01*
X131222887Y-77745574D01*
X131167115Y-77577262D01*
X131074030Y-77426348D01*
X131074028Y-77426346D01*
X131074027Y-77426344D01*
X130948655Y-77300972D01*
X130948650Y-77300969D01*
X130797738Y-77207885D01*
X130629426Y-77152113D01*
X130525545Y-77141500D01*
X130525540Y-77141500D01*
X129924459Y-77141500D01*
X129820573Y-77152113D01*
X129652262Y-77207885D01*
X129501344Y-77300972D01*
X129375972Y-77426344D01*
X129375970Y-77426348D01*
X129282885Y-77577262D01*
X129227113Y-77745574D01*
X129223239Y-77783499D01*
X129216500Y-77849459D01*
X129216500Y-79450540D01*
X129216501Y-79450545D01*
X129227113Y-79554426D01*
X129282885Y-79722738D01*
X129363006Y-79852634D01*
X129375972Y-79873655D01*
X129501344Y-79999027D01*
X129501346Y-79999028D01*
X129501348Y-79999030D01*
X129652262Y-80092115D01*
X129820574Y-80147887D01*
X129924455Y-80158500D01*
X130525544Y-80158499D01*
X130629426Y-80147887D01*
X130797738Y-80092115D01*
X130948652Y-79999030D01*
X131074030Y-79873652D01*
X131167115Y-79722738D01*
X131222887Y-79554426D01*
X131233500Y-79450545D01*
X131233500Y-79384500D01*
X131250381Y-79321500D01*
X131296500Y-79275381D01*
X131359500Y-79258500D01*
X132395761Y-79258500D01*
X132443979Y-79268091D01*
X132484856Y-79295405D01*
X137779595Y-84590144D01*
X137806909Y-84631021D01*
X137816500Y-84679239D01*
X137816500Y-88829340D01*
X137806909Y-88877558D01*
X137779595Y-88918435D01*
X131043435Y-95654595D01*
X131002558Y-95681909D01*
X130954340Y-95691500D01*
X130271085Y-95691500D01*
X130221486Y-95681327D01*
X130179896Y-95652451D01*
X130153030Y-95609535D01*
X130150889Y-95603796D01*
X130063261Y-95486738D01*
X129946205Y-95399111D01*
X129848862Y-95362804D01*
X129809201Y-95348011D01*
X129748638Y-95341500D01*
X128151362Y-95341500D01*
X128090799Y-95348011D01*
X127953794Y-95399111D01*
X127836738Y-95486738D01*
X127749111Y-95603794D01*
X127702598Y-95728500D01*
X127698011Y-95740799D01*
X127691500Y-95801362D01*
X127691500Y-96998638D01*
X121308500Y-96998638D01*
X121308500Y-95801362D01*
X121301989Y-95740799D01*
X121250889Y-95603796D01*
X121250887Y-95603793D01*
X121163261Y-95486738D01*
X121046205Y-95399111D01*
X121000536Y-95382077D01*
X120909201Y-95348011D01*
X120890263Y-95345975D01*
X120871030Y-95343907D01*
X120813875Y-95322975D01*
X120773201Y-95277694D01*
X120758500Y-95218629D01*
X120758500Y-90672992D01*
X120775381Y-90609992D01*
X120821500Y-90563873D01*
X120884500Y-90546992D01*
X123004291Y-90546992D01*
X123064854Y-90540481D01*
X123201857Y-90489381D01*
X123318914Y-90401753D01*
X123406542Y-90284696D01*
X123457642Y-90147693D01*
X123464153Y-90087130D01*
X123464153Y-89562870D01*
X123460512Y-89529000D01*
X125342000Y-89529000D01*
X125342000Y-91078589D01*
X125348505Y-91139093D01*
X125399554Y-91275962D01*
X125487095Y-91392904D01*
X125604037Y-91480445D01*
X125740906Y-91531494D01*
X125801411Y-91538000D01*
X126866000Y-91538000D01*
X126866000Y-89529000D01*
X127374000Y-89529000D01*
X127374000Y-91538000D01*
X128438589Y-91538000D01*
X128499093Y-91531494D01*
X128635962Y-91480445D01*
X128752904Y-91392904D01*
X128840445Y-91275962D01*
X128891494Y-91139093D01*
X128898000Y-91078589D01*
X128898000Y-89529000D01*
X127374000Y-89529000D01*
X126866000Y-89529000D01*
X125342000Y-89529000D01*
X123460512Y-89529000D01*
X123457642Y-89502307D01*
X123442232Y-89460993D01*
X123434310Y-89419293D01*
X123440682Y-89377335D01*
X123454051Y-89336993D01*
X123464153Y-89238110D01*
X123464153Y-89141890D01*
X123454051Y-89043007D01*
X123446759Y-89021000D01*
X125342000Y-89021000D01*
X126866000Y-89021000D01*
X126866000Y-87012000D01*
X127374000Y-87012000D01*
X127374000Y-89021000D01*
X128898000Y-89021000D01*
X128898000Y-87471411D01*
X128891494Y-87410906D01*
X128840445Y-87274037D01*
X128752904Y-87157095D01*
X128635962Y-87069554D01*
X128499093Y-87018505D01*
X128438589Y-87012000D01*
X127374000Y-87012000D01*
X126866000Y-87012000D01*
X125801411Y-87012000D01*
X125740906Y-87018505D01*
X125604037Y-87069554D01*
X125487095Y-87157095D01*
X125399554Y-87274037D01*
X125348505Y-87410906D01*
X125342000Y-87471411D01*
X125342000Y-89021000D01*
X123446759Y-89021000D01*
X123410682Y-88912128D01*
X123404287Y-88872501D01*
X123410683Y-88832867D01*
X123411218Y-88831254D01*
X123454051Y-88701993D01*
X123464153Y-88603110D01*
X123464153Y-88506890D01*
X123454051Y-88408007D01*
X123454050Y-88408004D01*
X123454050Y-88408002D01*
X123410684Y-88277133D01*
X123404288Y-88237500D01*
X123410684Y-88197867D01*
X123454050Y-88066997D01*
X123454050Y-88066995D01*
X123454051Y-88066993D01*
X123464153Y-87968110D01*
X123464153Y-87871890D01*
X123454051Y-87773007D01*
X123454050Y-87773004D01*
X123454050Y-87773002D01*
X123410421Y-87641340D01*
X123404025Y-87601708D01*
X123410420Y-87562075D01*
X123431489Y-87498492D01*
X123393895Y-87498492D01*
X123345677Y-87488901D01*
X123304800Y-87461587D01*
X123217308Y-87374095D01*
X123184696Y-87317611D01*
X123184696Y-87252389D01*
X123217308Y-87195905D01*
X123304800Y-87108413D01*
X123345677Y-87081099D01*
X123393895Y-87071508D01*
X123431489Y-87071508D01*
X123431488Y-87071507D01*
X123410420Y-87007925D01*
X123404025Y-86968292D01*
X123410421Y-86928660D01*
X123454050Y-86796997D01*
X123454050Y-86796995D01*
X123454051Y-86796993D01*
X123464153Y-86698110D01*
X123464153Y-86601890D01*
X123454051Y-86503007D01*
X123410682Y-86372128D01*
X123404287Y-86332501D01*
X123410683Y-86292867D01*
X123410684Y-86292866D01*
X123454051Y-86161993D01*
X123464153Y-86063110D01*
X123464153Y-85966890D01*
X123454051Y-85868007D01*
X123454050Y-85868004D01*
X123454050Y-85868002D01*
X123410684Y-85737133D01*
X123404288Y-85697500D01*
X123410684Y-85657867D01*
X123454050Y-85526997D01*
X123454050Y-85526995D01*
X123454051Y-85526993D01*
X123464153Y-85428110D01*
X123464153Y-85331890D01*
X123454051Y-85233007D01*
X123440557Y-85192284D01*
X123400963Y-85072798D01*
X123391977Y-85058229D01*
X123312358Y-84929146D01*
X123312356Y-84929144D01*
X123312355Y-84929142D01*
X123193018Y-84809805D01*
X123049362Y-84721197D01*
X122889157Y-84668110D01*
X122852072Y-84664321D01*
X122790271Y-84658008D01*
X122790266Y-84658008D01*
X122451541Y-84658008D01*
X122388541Y-84641127D01*
X122342422Y-84595008D01*
X122325541Y-84532008D01*
X122325541Y-83040177D01*
X122326619Y-83023731D01*
X122330791Y-82992041D01*
X122326619Y-82960350D01*
X122326619Y-82960344D01*
X122309879Y-82833191D01*
X122288931Y-82782618D01*
X122252092Y-82693679D01*
X122248566Y-82685167D01*
X122248565Y-82685166D01*
X122248565Y-82685165D01*
X122175519Y-82589970D01*
X122175515Y-82589966D01*
X122170491Y-82583418D01*
X122170491Y-82583417D01*
X122170484Y-82583410D01*
X122151028Y-82558053D01*
X122125659Y-82538587D01*
X122113269Y-82527720D01*
X118614315Y-79028766D01*
X118603448Y-79016375D01*
X118583986Y-78991011D01*
X118552074Y-78966524D01*
X118552074Y-78966525D01*
X118552072Y-78966523D01*
X118456876Y-78893476D01*
X118456875Y-78893475D01*
X118331653Y-78841607D01*
X118308851Y-78832162D01*
X118308850Y-78832161D01*
X118308848Y-78832161D01*
X118289468Y-78829608D01*
X118289456Y-78829608D01*
X118275469Y-78827766D01*
X118181703Y-78815422D01*
X118181691Y-78815422D01*
X118150000Y-78811250D01*
X118118307Y-78815422D01*
X118101864Y-78816500D01*
X115820955Y-78816500D01*
X115769930Y-78805706D01*
X115727647Y-78775174D01*
X115701351Y-78730134D01*
X115692186Y-78702477D01*
X115692115Y-78702262D01*
X115599030Y-78551348D01*
X115599028Y-78551346D01*
X115599027Y-78551344D01*
X115473655Y-78425972D01*
X115451423Y-78412259D01*
X115322738Y-78332885D01*
X115154426Y-78277113D01*
X115050545Y-78266500D01*
X115050540Y-78266500D01*
X114324459Y-78266500D01*
X114220573Y-78277113D01*
X114052262Y-78332885D01*
X113901344Y-78425972D01*
X113775972Y-78551344D01*
X113741693Y-78606920D01*
X113682885Y-78702262D01*
X113627113Y-78870574D01*
X113617311Y-78966525D01*
X113616500Y-78974459D01*
X113616500Y-80325540D01*
X113616501Y-80325545D01*
X113627113Y-80429426D01*
X113682885Y-80597738D01*
X113737871Y-80686884D01*
X113775972Y-80748655D01*
X113901344Y-80874027D01*
X113901346Y-80874028D01*
X113901348Y-80874030D01*
X114052262Y-80967115D01*
X114220574Y-81022887D01*
X114324455Y-81033500D01*
X115050544Y-81033499D01*
X115154426Y-81022887D01*
X115322738Y-80967115D01*
X115473652Y-80874030D01*
X115599030Y-80748652D01*
X115692115Y-80597738D01*
X115747887Y-80429426D01*
X115758500Y-80325545D01*
X115758500Y-80159500D01*
X115775381Y-80096500D01*
X115821500Y-80050381D01*
X115884500Y-80033500D01*
X117845761Y-80033500D01*
X117893979Y-80043091D01*
X117934856Y-80070405D01*
X121071636Y-83207185D01*
X121098950Y-83248062D01*
X121108541Y-83296280D01*
X121108541Y-84532008D01*
X121091660Y-84595008D01*
X121045541Y-84641127D01*
X120982541Y-84658008D01*
X120643811Y-84658008D01*
X120588876Y-84663620D01*
X120544924Y-84668110D01*
X120384719Y-84721197D01*
X120241063Y-84809805D01*
X120121726Y-84929142D01*
X120033118Y-85072798D01*
X119980031Y-85233003D01*
X119976988Y-85262791D01*
X119969929Y-85331890D01*
X119969929Y-85428110D01*
X119971167Y-85440224D01*
X119980031Y-85526997D01*
X120023398Y-85657867D01*
X120029794Y-85697500D01*
X120023398Y-85737133D01*
X119980031Y-85868002D01*
X119979561Y-85872606D01*
X119969929Y-85966890D01*
X119969929Y-86063110D01*
X119974885Y-86111619D01*
X119980031Y-86161996D01*
X120023398Y-86292866D01*
X120029794Y-86332499D01*
X120023399Y-86372131D01*
X119980031Y-86503007D01*
X119969929Y-86601890D01*
X119969929Y-86601895D01*
X119969929Y-86698108D01*
X119975526Y-86752901D01*
X119966726Y-86813586D01*
X119930323Y-86862930D01*
X119874938Y-86889248D01*
X119813689Y-86886306D01*
X119761083Y-86854800D01*
X119073140Y-86166857D01*
X119067923Y-86161316D01*
X119027586Y-86115785D01*
X118987319Y-86087990D01*
X118977533Y-86081235D01*
X118971405Y-86076725D01*
X118923537Y-86039223D01*
X118914235Y-86035036D01*
X118894381Y-86023839D01*
X118893094Y-86022951D01*
X118885988Y-86018046D01*
X118885986Y-86018045D01*
X118829135Y-85996483D01*
X118822107Y-85993572D01*
X118766642Y-85968610D01*
X118756602Y-85966770D01*
X118734645Y-85960649D01*
X118710813Y-85951612D01*
X118711870Y-85948822D01*
X118668897Y-85930482D01*
X118629091Y-85872606D01*
X118627568Y-85868011D01*
X118627568Y-85868007D01*
X118584199Y-85737130D01*
X118577805Y-85697500D01*
X118584201Y-85657867D01*
X118627567Y-85526997D01*
X118627567Y-85526995D01*
X118627568Y-85526993D01*
X118637670Y-85428110D01*
X118637670Y-85331890D01*
X118627568Y-85233007D01*
X118614074Y-85192284D01*
X118574480Y-85072798D01*
X118565494Y-85058229D01*
X118485875Y-84929146D01*
X118485873Y-84929144D01*
X118485872Y-84929142D01*
X118366535Y-84809805D01*
X118222879Y-84721197D01*
X118062674Y-84668110D01*
X118025589Y-84664321D01*
X117963788Y-84658008D01*
X117963783Y-84658008D01*
X117625058Y-84658008D01*
X117562058Y-84641127D01*
X117515939Y-84595008D01*
X117499058Y-84532008D01*
X117499058Y-83701194D01*
X117500136Y-83684748D01*
X117501690Y-83672944D01*
X117504308Y-83653058D01*
X117500136Y-83621367D01*
X117500136Y-83621361D01*
X117487177Y-83522925D01*
X117483396Y-83494208D01*
X117476595Y-83477790D01*
X117422082Y-83346182D01*
X117349036Y-83250987D01*
X117349032Y-83250983D01*
X117344008Y-83244435D01*
X117344008Y-83244434D01*
X117344001Y-83244427D01*
X117343742Y-83244090D01*
X117337425Y-83235857D01*
X117324545Y-83219070D01*
X117299176Y-83199604D01*
X117286786Y-83188737D01*
X116376815Y-82278766D01*
X116365948Y-82266375D01*
X116365838Y-82266232D01*
X116346487Y-82241013D01*
X116314574Y-82216525D01*
X116314572Y-82216523D01*
X116219376Y-82143476D01*
X116219375Y-82143475D01*
X116100838Y-82094376D01*
X116071351Y-82082162D01*
X116071350Y-82082161D01*
X116071348Y-82082161D01*
X116051968Y-82079608D01*
X116051956Y-82079608D01*
X116037969Y-82077766D01*
X115944203Y-82065422D01*
X115944191Y-82065422D01*
X115937174Y-82064498D01*
X115912497Y-82061249D01*
X115895379Y-82063503D01*
X115829589Y-82054516D01*
X115777504Y-82013331D01*
X115753588Y-81951386D01*
X115753074Y-81946350D01*
X115747887Y-81895574D01*
X115692115Y-81727262D01*
X115599030Y-81576348D01*
X115599028Y-81576346D01*
X115599027Y-81576344D01*
X115473655Y-81450972D01*
X115461729Y-81443616D01*
X115322738Y-81357885D01*
X115154426Y-81302113D01*
X115050545Y-81291500D01*
X115050540Y-81291500D01*
X114324459Y-81291500D01*
X114220573Y-81302113D01*
X114052262Y-81357885D01*
X113901344Y-81450972D01*
X113775972Y-81576344D01*
X113775970Y-81576348D01*
X113682885Y-81727262D01*
X113627113Y-81895574D01*
X113616761Y-81996908D01*
X113616500Y-81999459D01*
X113616500Y-83350540D01*
X113622538Y-83409641D01*
X113627113Y-83454426D01*
X113682885Y-83622738D01*
X113756893Y-83742723D01*
X113775972Y-83773655D01*
X113901344Y-83899027D01*
X113901346Y-83899028D01*
X113901348Y-83899030D01*
X114052262Y-83992115D01*
X114220574Y-84047887D01*
X114324455Y-84058500D01*
X115050544Y-84058499D01*
X115154426Y-84047887D01*
X115322738Y-83992115D01*
X115473652Y-83899030D01*
X115599030Y-83773652D01*
X115692115Y-83622738D01*
X115704413Y-83585622D01*
X115738892Y-83532360D01*
X115794959Y-83502653D01*
X115858394Y-83504036D01*
X115913112Y-83536161D01*
X116245153Y-83868202D01*
X116272467Y-83909079D01*
X116282058Y-83957297D01*
X116282058Y-84532008D01*
X116265177Y-84595008D01*
X116219058Y-84641127D01*
X116156058Y-84658008D01*
X115817328Y-84658008D01*
X115762393Y-84663620D01*
X115718441Y-84668110D01*
X115558236Y-84721197D01*
X115414580Y-84809805D01*
X115295243Y-84929142D01*
X115206635Y-85072798D01*
X115153548Y-85233003D01*
X115150505Y-85262791D01*
X115143446Y-85331890D01*
X115143446Y-85428110D01*
X115144684Y-85440224D01*
X115153548Y-85526997D01*
X115196915Y-85657867D01*
X115203311Y-85697500D01*
X115196915Y-85737133D01*
X115153548Y-85868002D01*
X115153078Y-85872606D01*
X115143446Y-85966890D01*
X115143446Y-86063110D01*
X115148402Y-86111619D01*
X115153548Y-86161996D01*
X115196915Y-86292866D01*
X115203311Y-86332499D01*
X115196916Y-86372131D01*
X115153548Y-86503007D01*
X115143446Y-86601890D01*
X115143446Y-86698110D01*
X115146468Y-86727696D01*
X115134262Y-86795954D01*
X115087787Y-86847419D01*
X115021121Y-86866500D01*
X114890380Y-86866500D01*
X114828974Y-86850524D01*
X114783140Y-86806647D01*
X114749030Y-86751347D01*
X114746865Y-86749182D01*
X114717146Y-86702031D01*
X114710676Y-86646673D01*
X114728718Y-86593943D01*
X114768209Y-86529920D01*
X114823062Y-86364381D01*
X114833500Y-86262213D01*
X114833499Y-85687788D01*
X114823062Y-85585619D01*
X114768209Y-85420080D01*
X114676658Y-85271654D01*
X114676656Y-85271652D01*
X114676655Y-85271650D01*
X114553349Y-85148344D01*
X114553346Y-85148342D01*
X114404920Y-85056791D01*
X114259432Y-85008582D01*
X114239382Y-85001938D01*
X114209204Y-84998855D01*
X114137213Y-84991500D01*
X114137208Y-84991500D01*
X113437791Y-84991500D01*
X113335618Y-85001938D01*
X113170080Y-85056791D01*
X113021650Y-85148344D01*
X113013741Y-85156254D01*
X112957257Y-85188866D01*
X112892035Y-85188866D01*
X112835551Y-85156254D01*
X112828036Y-85148739D01*
X112679704Y-85057246D01*
X112514283Y-85002431D01*
X112412171Y-84992000D01*
X112316500Y-84992000D01*
X112316500Y-86958000D01*
X112412171Y-86958000D01*
X112514281Y-86947568D01*
X112536935Y-86940061D01*
X112598899Y-86935658D01*
X112655436Y-86961397D01*
X112692803Y-87011022D01*
X112701919Y-87072469D01*
X112699019Y-87100854D01*
X112691978Y-87169782D01*
X112691500Y-87174457D01*
X112691500Y-87825543D01*
X112691721Y-87827697D01*
X112691500Y-87829214D01*
X112691501Y-87831963D01*
X112691102Y-87831963D01*
X112682921Y-87888381D01*
X112646518Y-87937726D01*
X112591133Y-87964043D01*
X112529884Y-87961101D01*
X112477278Y-87929595D01*
X112423655Y-87875972D01*
X112417037Y-87871890D01*
X112272738Y-87782885D01*
X112104426Y-87727113D01*
X112000545Y-87716500D01*
X112000540Y-87716500D01*
X110649459Y-87716500D01*
X110545573Y-87727113D01*
X110377262Y-87782885D01*
X110226344Y-87875972D01*
X110100972Y-88001344D01*
X110060480Y-88066993D01*
X110007885Y-88152262D01*
X109952113Y-88320574D01*
X109941683Y-88422671D01*
X109941500Y-88424459D01*
X109941500Y-88515500D01*
X109924619Y-88578500D01*
X109878500Y-88624619D01*
X109815500Y-88641500D01*
X108851371Y-88641500D01*
X108792307Y-88626799D01*
X108747026Y-88586126D01*
X108726093Y-88528973D01*
X108725439Y-88522887D01*
X108724426Y-88513468D01*
X108724426Y-88486530D01*
X108726217Y-88469877D01*
X108728500Y-88448638D01*
X108728500Y-88364889D01*
X108741494Y-88309161D01*
X108777796Y-88264927D01*
X108867920Y-88195772D01*
X108867922Y-88195769D01*
X108871071Y-88193353D01*
X108883277Y-88183987D01*
X108902747Y-88158611D01*
X108913599Y-88146238D01*
X110196228Y-86863608D01*
X110208618Y-86852742D01*
X110215555Y-86847419D01*
X110233987Y-86833276D01*
X110247948Y-86815080D01*
X110247952Y-86815077D01*
X110258555Y-86801260D01*
X110331524Y-86706165D01*
X110392838Y-86558140D01*
X110399281Y-86509201D01*
X110408500Y-86439174D01*
X110409578Y-86430986D01*
X110409578Y-86430979D01*
X110413750Y-86399289D01*
X110409577Y-86367596D01*
X110408500Y-86351153D01*
X110408500Y-86229000D01*
X111017000Y-86229000D01*
X111017000Y-86262171D01*
X111027431Y-86364283D01*
X111082246Y-86529704D01*
X111173739Y-86678036D01*
X111296963Y-86801260D01*
X111445295Y-86892753D01*
X111610716Y-86947568D01*
X111712829Y-86958000D01*
X111808500Y-86958000D01*
X111808500Y-86229000D01*
X111017000Y-86229000D01*
X110408500Y-86229000D01*
X110408500Y-85721000D01*
X111017000Y-85721000D01*
X111808500Y-85721000D01*
X111808500Y-84992000D01*
X111712829Y-84992000D01*
X111610716Y-85002431D01*
X111445295Y-85057246D01*
X111296963Y-85148739D01*
X111173739Y-85271963D01*
X111082246Y-85420295D01*
X111027431Y-85585716D01*
X111017000Y-85687829D01*
X111017000Y-85721000D01*
X110408500Y-85721000D01*
X110408500Y-84479240D01*
X110418091Y-84431022D01*
X110445404Y-84390145D01*
X110553859Y-84281690D01*
X110881268Y-83954280D01*
X110928416Y-83924563D01*
X110983775Y-83918093D01*
X111036503Y-83936134D01*
X111127262Y-83992115D01*
X111295574Y-84047887D01*
X111399455Y-84058500D01*
X112125544Y-84058499D01*
X112229426Y-84047887D01*
X112397738Y-83992115D01*
X112548652Y-83899030D01*
X112674030Y-83773652D01*
X112767115Y-83622738D01*
X112822887Y-83454426D01*
X112833500Y-83350545D01*
X112833499Y-81999456D01*
X112822887Y-81895574D01*
X112767115Y-81727262D01*
X112674030Y-81576348D01*
X112674028Y-81576346D01*
X112674027Y-81576344D01*
X112548655Y-81450972D01*
X112536729Y-81443616D01*
X112397738Y-81357885D01*
X112229426Y-81302113D01*
X112125545Y-81291500D01*
X112125540Y-81291500D01*
X111399459Y-81291500D01*
X111360738Y-81295456D01*
X111322302Y-81299382D01*
X111254045Y-81287176D01*
X111202581Y-81240701D01*
X111183500Y-81174035D01*
X111183500Y-81150966D01*
X111202581Y-81084300D01*
X111254045Y-81037825D01*
X111322305Y-81025618D01*
X111399455Y-81033500D01*
X112125544Y-81033499D01*
X112229426Y-81022887D01*
X112397738Y-80967115D01*
X112548652Y-80874030D01*
X112674030Y-80748652D01*
X112767115Y-80597738D01*
X112822887Y-80429426D01*
X112833500Y-80325545D01*
X112833499Y-78974456D01*
X112822887Y-78870574D01*
X112767115Y-78702262D01*
X112674030Y-78551348D01*
X112674028Y-78551346D01*
X112674027Y-78551344D01*
X112548655Y-78425972D01*
X112526423Y-78412259D01*
X112397738Y-78332885D01*
X112229426Y-78277113D01*
X112125545Y-78266500D01*
X112125540Y-78266500D01*
X111399459Y-78266500D01*
X111295573Y-78277113D01*
X111127262Y-78332885D01*
X110976344Y-78425972D01*
X110850972Y-78551344D01*
X110816693Y-78606920D01*
X110757885Y-78702262D01*
X110702113Y-78870574D01*
X110692311Y-78966525D01*
X110691500Y-78974459D01*
X110691500Y-79795759D01*
X110681909Y-79843977D01*
X110654595Y-79884854D01*
X110470344Y-80069105D01*
X110413860Y-80101717D01*
X110348638Y-80101717D01*
X110292154Y-80069105D01*
X110120404Y-79897355D01*
X110093090Y-79856478D01*
X110083499Y-79808260D01*
X110083499Y-78974460D01*
X110083499Y-78974456D01*
X110072887Y-78870574D01*
X110017115Y-78702262D01*
X109924030Y-78551348D01*
X109924028Y-78551346D01*
X109924027Y-78551344D01*
X109798655Y-78425972D01*
X109776423Y-78412259D01*
X109647738Y-78332885D01*
X109479426Y-78277113D01*
X109375545Y-78266500D01*
X109375540Y-78266500D01*
X108649459Y-78266500D01*
X108545573Y-78277113D01*
X108377262Y-78332885D01*
X108226344Y-78425972D01*
X108100972Y-78551344D01*
X108066693Y-78606920D01*
X108007885Y-78702262D01*
X107952113Y-78870574D01*
X107942311Y-78966525D01*
X107941500Y-78974459D01*
X107941500Y-80325540D01*
X107941501Y-80325545D01*
X107952113Y-80429426D01*
X108007885Y-80597738D01*
X108062871Y-80686884D01*
X108100972Y-80748655D01*
X108226344Y-80874027D01*
X108226346Y-80874028D01*
X108226348Y-80874030D01*
X108377262Y-80967115D01*
X108545574Y-81022887D01*
X108649455Y-81033500D01*
X109375544Y-81033499D01*
X109427696Y-81028171D01*
X109495955Y-81040379D01*
X109547419Y-81086853D01*
X109566500Y-81153519D01*
X109566500Y-82364389D01*
X109556909Y-82412607D01*
X109529595Y-82453485D01*
X108603763Y-83379314D01*
X108591376Y-83390178D01*
X108566012Y-83409641D01*
X108538973Y-83444879D01*
X108538971Y-83444881D01*
X108521353Y-83467842D01*
X108476656Y-83504372D01*
X108420359Y-83517136D01*
X108364278Y-83503454D01*
X108320184Y-83466197D01*
X108296305Y-83434000D01*
X105243693Y-83434000D01*
X105284223Y-83567609D01*
X105377823Y-83742723D01*
X105503787Y-83896212D01*
X105657276Y-84022176D01*
X105773352Y-84084220D01*
X105814543Y-84119458D01*
X105837116Y-84168741D01*
X105836895Y-84222948D01*
X105813919Y-84272045D01*
X105777302Y-84319765D01*
X105719312Y-84459764D01*
X105699534Y-84610000D01*
X105719312Y-84760235D01*
X105777301Y-84900232D01*
X105777302Y-84900233D01*
X105855343Y-85001938D01*
X105860442Y-85008582D01*
X105883540Y-85058229D01*
X105883398Y-85112986D01*
X105860041Y-85162510D01*
X105854907Y-85169129D01*
X105850384Y-85174961D01*
X105832824Y-85215539D01*
X105827604Y-85226195D01*
X105806304Y-85264940D01*
X105801267Y-85284559D01*
X105794864Y-85303261D01*
X105786818Y-85321855D01*
X105779901Y-85365524D01*
X105777495Y-85377144D01*
X105766500Y-85419970D01*
X105766500Y-85440224D01*
X105764949Y-85459934D01*
X105761779Y-85479942D01*
X105765941Y-85523961D01*
X105766500Y-85535819D01*
X105766500Y-86584363D01*
X105756909Y-86632582D01*
X105729595Y-86673458D01*
X105689916Y-86713137D01*
X105656332Y-86746721D01*
X105640015Y-86759794D01*
X105591369Y-86811595D01*
X105588620Y-86814432D01*
X105568868Y-86834185D01*
X105568864Y-86834189D01*
X105568865Y-86834189D01*
X105566379Y-86837392D01*
X105558687Y-86846398D01*
X105528413Y-86878637D01*
X105518652Y-86896393D01*
X105507801Y-86912911D01*
X105495385Y-86928918D01*
X105477824Y-86969498D01*
X105472604Y-86980154D01*
X105451304Y-87018899D01*
X105446267Y-87038518D01*
X105439864Y-87057220D01*
X105431818Y-87075814D01*
X105424901Y-87119483D01*
X105422495Y-87131103D01*
X105411500Y-87173929D01*
X105411500Y-87194183D01*
X105409949Y-87213893D01*
X105406779Y-87233901D01*
X105410941Y-87277920D01*
X105411500Y-87289778D01*
X105411500Y-88162187D01*
X105409204Y-88182975D01*
X105411438Y-88254026D01*
X105411500Y-88257985D01*
X105411500Y-88285897D01*
X105412007Y-88289913D01*
X105412937Y-88301736D01*
X105414326Y-88345932D01*
X105419977Y-88365381D01*
X105423986Y-88384736D01*
X105426525Y-88404834D01*
X105426525Y-88404836D01*
X105426526Y-88404837D01*
X105435736Y-88428100D01*
X105442801Y-88445943D01*
X105446644Y-88457170D01*
X105458980Y-88499630D01*
X105458982Y-88499633D01*
X105468365Y-88515500D01*
X105469294Y-88517070D01*
X105477987Y-88534814D01*
X105485448Y-88553657D01*
X105485449Y-88553659D01*
X105511431Y-88589420D01*
X105517948Y-88599341D01*
X105540456Y-88637400D01*
X105540457Y-88637401D01*
X105540458Y-88637402D01*
X105554783Y-88651727D01*
X105567614Y-88666749D01*
X105579528Y-88683147D01*
X105602311Y-88701995D01*
X105613603Y-88711337D01*
X105622380Y-88719325D01*
X105729595Y-88826540D01*
X105756909Y-88867417D01*
X105766500Y-88915635D01*
X105766500Y-89436198D01*
X105764204Y-89456986D01*
X105766438Y-89528037D01*
X105766500Y-89531996D01*
X105766500Y-89559908D01*
X105767007Y-89563924D01*
X105767937Y-89575747D01*
X105769326Y-89619943D01*
X105774977Y-89639392D01*
X105778986Y-89658747D01*
X105781525Y-89678845D01*
X105797801Y-89719954D01*
X105801644Y-89731181D01*
X105813980Y-89773641D01*
X105824294Y-89791081D01*
X105832987Y-89808825D01*
X105840448Y-89827668D01*
X105840449Y-89827670D01*
X105855977Y-89849042D01*
X105877512Y-89897983D01*
X105876812Y-89951447D01*
X105854004Y-89999807D01*
X105777301Y-90099767D01*
X105719312Y-90239764D01*
X105699534Y-90390000D01*
X105719312Y-90540235D01*
X105777302Y-90680234D01*
X105813918Y-90727953D01*
X105836894Y-90777050D01*
X105837116Y-90831257D01*
X105814543Y-90880540D01*
X105773353Y-90915779D01*
X105657274Y-90977824D01*
X105503787Y-91103787D01*
X105377823Y-91257276D01*
X105284223Y-91432390D01*
X105243692Y-91565999D01*
X105243693Y-91566000D01*
X108296306Y-91566000D01*
X108327679Y-91523697D01*
X108353151Y-91498054D01*
X108384854Y-91480697D01*
X108444368Y-91458500D01*
X109942000Y-91458500D01*
X111071000Y-91458500D01*
X111071000Y-90642000D01*
X111579000Y-90642000D01*
X111579000Y-91458500D01*
X112708000Y-91458500D01*
X112708000Y-91349497D01*
X112697393Y-91245671D01*
X112641659Y-91077477D01*
X112548632Y-90926657D01*
X112423342Y-90801367D01*
X112272522Y-90708340D01*
X112104328Y-90652606D01*
X112000503Y-90642000D01*
X111579000Y-90642000D01*
X111071000Y-90642000D01*
X110649497Y-90642000D01*
X110545671Y-90652606D01*
X110377477Y-90708340D01*
X110226657Y-90801367D01*
X110101367Y-90926657D01*
X110008340Y-91077477D01*
X109952606Y-91245671D01*
X109942000Y-91349497D01*
X109942000Y-91458500D01*
X108444368Y-91458500D01*
X108465962Y-91450446D01*
X108582904Y-91362904D01*
X108670445Y-91245962D01*
X108721494Y-91109093D01*
X108728000Y-91048589D01*
X108728000Y-90954000D01*
X108335850Y-90954000D01*
X108274808Y-90938226D01*
X108229049Y-90894855D01*
X108210031Y-90834744D01*
X108222514Y-90772945D01*
X108263374Y-90724931D01*
X108322380Y-90702722D01*
X108329201Y-90701989D01*
X108466204Y-90650889D01*
X108583261Y-90563261D01*
X108600315Y-90540480D01*
X108633245Y-90496491D01*
X108677713Y-90459328D01*
X108726109Y-90447891D01*
X108742091Y-90431909D01*
X108744881Y-90421500D01*
X108791000Y-90375381D01*
X108854000Y-90358500D01*
X112663360Y-90358500D01*
X112724766Y-90374476D01*
X112770599Y-90418351D01*
X112845930Y-90540481D01*
X112850972Y-90548655D01*
X112976344Y-90674027D01*
X112976346Y-90674028D01*
X112976348Y-90674030D01*
X113127262Y-90767115D01*
X113295574Y-90822887D01*
X113399455Y-90833500D01*
X114200544Y-90833499D01*
X114304426Y-90822887D01*
X114472738Y-90767115D01*
X114524354Y-90735277D01*
X114587752Y-90716549D01*
X114651907Y-90732495D01*
X114699158Y-90778727D01*
X114716500Y-90842519D01*
X114716500Y-91345761D01*
X114706909Y-91393979D01*
X114679595Y-91434856D01*
X112909856Y-93204595D01*
X112868979Y-93231909D01*
X112820761Y-93241500D01*
X109048144Y-93241500D01*
X109031698Y-93240422D01*
X109000000Y-93236249D01*
X108841149Y-93257161D01*
X108693121Y-93318476D01*
X108598696Y-93390932D01*
X108598476Y-93391102D01*
X108566011Y-93416014D01*
X108546545Y-93441381D01*
X108535681Y-93453768D01*
X107234853Y-94754597D01*
X107193979Y-94781909D01*
X107145761Y-94791500D01*
X105001362Y-94791500D01*
X104940799Y-94798011D01*
X104803794Y-94849111D01*
X104686738Y-94936738D01*
X104599111Y-95053794D01*
X104576340Y-95114846D01*
X104548011Y-95190799D01*
X104541500Y-95251362D01*
X104541500Y-97548638D01*
X100075500Y-97548638D01*
X100075500Y-92074000D01*
X101323693Y-92074000D01*
X101364223Y-92207609D01*
X101457823Y-92382723D01*
X101583787Y-92536212D01*
X101737276Y-92662176D01*
X101912390Y-92755776D01*
X102102396Y-92813415D01*
X102250479Y-92828000D01*
X102346000Y-92828000D01*
X102346000Y-92074000D01*
X102854000Y-92074000D01*
X102854000Y-92828000D01*
X102949521Y-92828000D01*
X103097603Y-92813415D01*
X103287609Y-92755776D01*
X103462723Y-92662176D01*
X103616212Y-92536212D01*
X103742176Y-92382723D01*
X103835776Y-92207609D01*
X103876307Y-92074000D01*
X105243693Y-92074000D01*
X105284223Y-92207609D01*
X105377823Y-92382723D01*
X105503787Y-92536212D01*
X105657276Y-92662176D01*
X105832390Y-92755776D01*
X106022396Y-92813415D01*
X106170479Y-92828000D01*
X106516000Y-92828000D01*
X106516000Y-92074000D01*
X107024000Y-92074000D01*
X107024000Y-92828000D01*
X107369521Y-92828000D01*
X107517603Y-92813415D01*
X107707609Y-92755776D01*
X107882723Y-92662176D01*
X108036212Y-92536212D01*
X108162176Y-92382723D01*
X108255776Y-92207609D01*
X108296307Y-92074000D01*
X107024000Y-92074000D01*
X106516000Y-92074000D01*
X105243693Y-92074000D01*
X103876307Y-92074000D01*
X102854000Y-92074000D01*
X102346000Y-92074000D01*
X101323693Y-92074000D01*
X100075500Y-92074000D01*
X100075500Y-91966500D01*
X109942000Y-91966500D01*
X109942000Y-92075503D01*
X109952606Y-92179328D01*
X110008340Y-92347522D01*
X110101367Y-92498342D01*
X110226657Y-92623632D01*
X110377477Y-92716659D01*
X110545671Y-92772393D01*
X110649497Y-92783000D01*
X111071000Y-92783000D01*
X111071000Y-91966500D01*
X111579000Y-91966500D01*
X111579000Y-92783000D01*
X112000503Y-92783000D01*
X112104328Y-92772393D01*
X112272522Y-92716659D01*
X112423342Y-92623632D01*
X112548632Y-92498342D01*
X112641659Y-92347522D01*
X112697393Y-92179328D01*
X112708000Y-92075503D01*
X112708000Y-91966500D01*
X111579000Y-91966500D01*
X111071000Y-91966500D01*
X109942000Y-91966500D01*
X100075500Y-91966500D01*
X100075500Y-91565999D01*
X101323692Y-91565999D01*
X101323693Y-91566000D01*
X102346000Y-91566000D01*
X102346000Y-90812000D01*
X102854000Y-90812000D01*
X102854000Y-91566000D01*
X103876307Y-91566000D01*
X103876307Y-91565999D01*
X103835776Y-91432390D01*
X103742176Y-91257276D01*
X103616212Y-91103787D01*
X103462723Y-90977823D01*
X103287609Y-90884223D01*
X103097603Y-90826584D01*
X102949521Y-90812000D01*
X102854000Y-90812000D01*
X102346000Y-90812000D01*
X102250479Y-90812000D01*
X102102396Y-90826584D01*
X101912390Y-90884223D01*
X101737276Y-90977823D01*
X101583787Y-91103787D01*
X101457823Y-91257276D01*
X101364223Y-91432390D01*
X101323692Y-91565999D01*
X100075500Y-91565999D01*
X100075500Y-83434000D01*
X101323693Y-83434000D01*
X101364223Y-83567609D01*
X101457823Y-83742723D01*
X101583787Y-83896212D01*
X101737276Y-84022176D01*
X101912390Y-84115776D01*
X102102396Y-84173415D01*
X102250479Y-84188000D01*
X102346000Y-84188000D01*
X102346000Y-83434000D01*
X102854000Y-83434000D01*
X102854000Y-84188000D01*
X102949521Y-84188000D01*
X103097603Y-84173415D01*
X103287609Y-84115776D01*
X103462723Y-84022176D01*
X103616212Y-83896212D01*
X103742176Y-83742723D01*
X103835776Y-83567609D01*
X103876307Y-83434000D01*
X102854000Y-83434000D01*
X102346000Y-83434000D01*
X101323693Y-83434000D01*
X100075500Y-83434000D01*
X100075500Y-82925999D01*
X101323692Y-82925999D01*
X101323693Y-82926000D01*
X102346000Y-82926000D01*
X102346000Y-82172000D01*
X102854000Y-82172000D01*
X102854000Y-82926000D01*
X103876307Y-82926000D01*
X103876307Y-82925999D01*
X105243692Y-82925999D01*
X105243693Y-82926000D01*
X106516000Y-82926000D01*
X106516000Y-82172000D01*
X107024000Y-82172000D01*
X107024000Y-82926000D01*
X108296307Y-82926000D01*
X108296307Y-82925999D01*
X108255776Y-82792390D01*
X108162176Y-82617276D01*
X108036212Y-82463787D01*
X107882723Y-82337823D01*
X107707609Y-82244223D01*
X107517603Y-82186584D01*
X107369521Y-82172000D01*
X107024000Y-82172000D01*
X106516000Y-82172000D01*
X106170479Y-82172000D01*
X106022396Y-82186584D01*
X105832390Y-82244223D01*
X105657276Y-82337823D01*
X105503787Y-82463787D01*
X105377823Y-82617276D01*
X105284223Y-82792390D01*
X105243692Y-82925999D01*
X103876307Y-82925999D01*
X103835776Y-82792390D01*
X103742176Y-82617276D01*
X103616212Y-82463787D01*
X103462723Y-82337823D01*
X103287609Y-82244223D01*
X103097603Y-82186584D01*
X102949521Y-82172000D01*
X102854000Y-82172000D01*
X102346000Y-82172000D01*
X102250479Y-82172000D01*
X102102396Y-82186584D01*
X101912390Y-82244223D01*
X101737276Y-82337823D01*
X101583787Y-82463787D01*
X101457823Y-82617276D01*
X101364223Y-82792390D01*
X101323692Y-82925999D01*
X100075500Y-82925999D01*
X100075500Y-79904000D01*
X105017000Y-79904000D01*
X105017000Y-80325503D01*
X105027606Y-80429328D01*
X105083340Y-80597522D01*
X105176367Y-80748342D01*
X105301657Y-80873632D01*
X105452477Y-80966659D01*
X105620671Y-81022393D01*
X105724497Y-81033000D01*
X105833500Y-81033000D01*
X105833500Y-79904000D01*
X106341500Y-79904000D01*
X106341500Y-81033000D01*
X106450503Y-81033000D01*
X106554328Y-81022393D01*
X106722522Y-80966659D01*
X106873342Y-80873632D01*
X106998632Y-80748342D01*
X107091659Y-80597522D01*
X107147393Y-80429328D01*
X107158000Y-80325503D01*
X107158000Y-79904000D01*
X106341500Y-79904000D01*
X105833500Y-79904000D01*
X105017000Y-79904000D01*
X100075500Y-79904000D01*
X100075500Y-79396000D01*
X105017000Y-79396000D01*
X105833500Y-79396000D01*
X105833500Y-78267000D01*
X106341500Y-78267000D01*
X106341500Y-79396000D01*
X107158000Y-79396000D01*
X107158000Y-78974497D01*
X107147393Y-78870671D01*
X107091659Y-78702477D01*
X106998632Y-78551657D01*
X106873342Y-78426367D01*
X106722522Y-78333340D01*
X106554328Y-78277606D01*
X106450503Y-78267000D01*
X106341500Y-78267000D01*
X105833500Y-78267000D01*
X105724497Y-78267000D01*
X105620671Y-78277606D01*
X105452477Y-78333340D01*
X105301657Y-78426367D01*
X105176367Y-78551657D01*
X105083340Y-78702477D01*
X105027606Y-78870671D01*
X105017000Y-78974497D01*
X105017000Y-79396000D01*
X100075500Y-79396000D01*
X100075500Y-72499999D01*
X102419407Y-72499999D01*
X102439756Y-72823432D01*
X102500481Y-73141766D01*
X102600626Y-73449979D01*
X102738610Y-73743210D01*
X102912254Y-74016831D01*
X103118828Y-74266537D01*
X103355069Y-74488380D01*
X103617246Y-74678864D01*
X103726231Y-74738779D01*
X103901237Y-74834989D01*
X104202553Y-74954289D01*
X104367348Y-74996601D01*
X104516444Y-75034883D01*
X104837960Y-75075500D01*
X104837963Y-75075500D01*
X105162037Y-75075500D01*
X105162040Y-75075500D01*
X105483555Y-75034883D01*
X105483555Y-75034882D01*
X105797447Y-74954289D01*
X106098763Y-74834989D01*
X106382750Y-74678866D01*
X106390574Y-74673182D01*
X106434724Y-74641104D01*
X106644931Y-74488380D01*
X106881171Y-74266537D01*
X107087743Y-74016834D01*
X107223065Y-73803600D01*
X109467400Y-73803600D01*
X109467400Y-73898189D01*
X109473905Y-73958693D01*
X109524954Y-74095562D01*
X109612495Y-74212504D01*
X109729437Y-74300045D01*
X109866306Y-74351094D01*
X109926811Y-74357600D01*
X111021400Y-74357600D01*
X111021400Y-73803600D01*
X109467400Y-73803600D01*
X107223065Y-73803600D01*
X107261390Y-73743210D01*
X107399374Y-73449979D01*
X107499518Y-73141767D01*
X107560243Y-72823434D01*
X107561828Y-72798238D01*
X109466900Y-72798238D01*
X109473411Y-72858801D01*
X109487323Y-72896100D01*
X109509770Y-72956283D01*
X109517714Y-73000315D01*
X109509770Y-73044347D01*
X109473905Y-73140506D01*
X109467400Y-73201011D01*
X109467400Y-73295600D01*
X111403400Y-73295600D01*
X111466400Y-73312481D01*
X111512519Y-73358600D01*
X111529400Y-73421600D01*
X111529400Y-74367023D01*
X111549141Y-74401214D01*
X111549141Y-74466436D01*
X111516529Y-74522920D01*
X111366267Y-74673182D01*
X111353880Y-74684047D01*
X111328512Y-74703513D01*
X111301473Y-74738751D01*
X111301450Y-74738779D01*
X111230976Y-74830622D01*
X111179752Y-74954289D01*
X111169662Y-74978649D01*
X111166288Y-75004274D01*
X111147138Y-75056297D01*
X111107513Y-75095066D01*
X110976344Y-75175972D01*
X110850972Y-75301344D01*
X110850970Y-75301348D01*
X110757885Y-75452262D01*
X110726186Y-75547925D01*
X110702113Y-75620574D01*
X110691500Y-75724459D01*
X110691500Y-77075540D01*
X110698239Y-77141501D01*
X110702113Y-77179426D01*
X110757885Y-77347738D01*
X110850970Y-77498652D01*
X110850972Y-77498655D01*
X110976344Y-77624027D01*
X110976346Y-77624028D01*
X110976348Y-77624030D01*
X111127262Y-77717115D01*
X111295574Y-77772887D01*
X111399455Y-77783500D01*
X112125544Y-77783499D01*
X112229426Y-77772887D01*
X112397738Y-77717115D01*
X112548652Y-77624030D01*
X112674030Y-77498652D01*
X112767115Y-77347738D01*
X112822887Y-77179426D01*
X112833500Y-77075545D01*
X112833500Y-77075540D01*
X113616500Y-77075540D01*
X113623239Y-77141501D01*
X113627113Y-77179426D01*
X113682885Y-77347738D01*
X113775970Y-77498652D01*
X113775972Y-77498655D01*
X113901344Y-77624027D01*
X113901346Y-77624028D01*
X113901348Y-77624030D01*
X114052262Y-77717115D01*
X114220574Y-77772887D01*
X114324455Y-77783500D01*
X115050544Y-77783499D01*
X115154426Y-77772887D01*
X115322738Y-77717115D01*
X115473652Y-77624030D01*
X115599030Y-77498652D01*
X115692115Y-77347738D01*
X115747887Y-77179426D01*
X115758500Y-77075545D01*
X115758499Y-75724456D01*
X115747887Y-75620574D01*
X115692115Y-75452262D01*
X115599030Y-75301348D01*
X115599028Y-75301346D01*
X115599027Y-75301344D01*
X115473655Y-75175972D01*
X115368353Y-75111021D01*
X115324476Y-75065186D01*
X115308500Y-75003780D01*
X115308500Y-74484100D01*
X115325381Y-74421100D01*
X115371500Y-74374981D01*
X115434500Y-74358100D01*
X118124038Y-74358100D01*
X118184601Y-74351589D01*
X118321604Y-74300489D01*
X118438661Y-74212861D01*
X118526289Y-74095804D01*
X118577389Y-73958801D01*
X118583900Y-73898238D01*
X118583900Y-73778839D01*
X118593491Y-73730621D01*
X118620805Y-73689744D01*
X119040544Y-73270005D01*
X119081421Y-73242691D01*
X119129639Y-73233100D01*
X119645361Y-73233100D01*
X119693579Y-73242691D01*
X119734456Y-73270005D01*
X120154595Y-73690144D01*
X120181909Y-73731021D01*
X120191500Y-73779239D01*
X120191500Y-74175540D01*
X120201642Y-74274815D01*
X120202113Y-74279426D01*
X120257885Y-74447738D01*
X120304258Y-74522920D01*
X120350972Y-74598655D01*
X120476344Y-74724027D01*
X120476346Y-74724028D01*
X120476348Y-74724030D01*
X120627262Y-74817115D01*
X120795574Y-74872887D01*
X120899455Y-74883500D01*
X121625544Y-74883499D01*
X121729426Y-74872887D01*
X121897738Y-74817115D01*
X122048652Y-74724030D01*
X122174030Y-74598652D01*
X122267115Y-74447738D01*
X122322887Y-74279426D01*
X122333500Y-74175545D01*
X122333500Y-73754000D01*
X123117000Y-73754000D01*
X123117000Y-74175503D01*
X123127606Y-74279328D01*
X123183340Y-74447522D01*
X123276367Y-74598342D01*
X123401657Y-74723632D01*
X123552477Y-74816659D01*
X123720671Y-74872393D01*
X123824497Y-74883000D01*
X123933500Y-74883000D01*
X123933500Y-73754000D01*
X124441500Y-73754000D01*
X124441500Y-74883000D01*
X124550503Y-74883000D01*
X124654328Y-74872393D01*
X124822522Y-74816659D01*
X124973342Y-74723632D01*
X125098632Y-74598342D01*
X125191659Y-74447522D01*
X125247393Y-74279328D01*
X125258000Y-74175503D01*
X125258000Y-73754000D01*
X124441500Y-73754000D01*
X123933500Y-73754000D01*
X123117000Y-73754000D01*
X122333500Y-73754000D01*
X122333499Y-72959099D01*
X122350380Y-72896100D01*
X122396499Y-72849981D01*
X122459499Y-72833100D01*
X122991000Y-72833100D01*
X123054000Y-72849981D01*
X123100119Y-72896100D01*
X123117000Y-72959100D01*
X123117000Y-73246000D01*
X125258000Y-73246000D01*
X125258000Y-72959100D01*
X125274881Y-72896100D01*
X125321000Y-72849981D01*
X125384000Y-72833100D01*
X127777161Y-72833100D01*
X127834364Y-72846833D01*
X127879097Y-72885039D01*
X127901610Y-72939389D01*
X127896994Y-72998036D01*
X127866256Y-73048195D01*
X125428767Y-75485682D01*
X125416380Y-75496547D01*
X125391012Y-75516013D01*
X125363973Y-75551251D01*
X125363950Y-75551279D01*
X125293476Y-75643122D01*
X125239788Y-75772738D01*
X125232161Y-75791150D01*
X125215422Y-75918303D01*
X125215422Y-75918310D01*
X125211250Y-75950000D01*
X125215422Y-75981690D01*
X125216500Y-75998136D01*
X125216500Y-77159620D01*
X125200524Y-77221026D01*
X125156647Y-77266860D01*
X125101347Y-77300969D01*
X124975972Y-77426344D01*
X124975970Y-77426348D01*
X124882885Y-77577262D01*
X124827113Y-77745574D01*
X124823239Y-77783499D01*
X124816500Y-77849459D01*
X124816500Y-79450540D01*
X124816501Y-79450545D01*
X124827113Y-79554426D01*
X124882885Y-79722738D01*
X124963006Y-79852634D01*
X124975972Y-79873655D01*
X125101344Y-79999027D01*
X125101346Y-79999028D01*
X125101348Y-79999030D01*
X125252262Y-80092115D01*
X125420574Y-80147887D01*
X125524455Y-80158500D01*
X126125544Y-80158499D01*
X126229426Y-80147887D01*
X126397738Y-80092115D01*
X126548652Y-79999030D01*
X126674030Y-79873652D01*
X126767115Y-79722738D01*
X126822887Y-79554426D01*
X126833500Y-79450545D01*
X126833499Y-77849456D01*
X126822887Y-77745574D01*
X126767115Y-77577262D01*
X126674030Y-77426348D01*
X126674028Y-77426346D01*
X126674027Y-77426344D01*
X126548652Y-77300969D01*
X126493353Y-77266860D01*
X126449476Y-77221026D01*
X126433500Y-77159620D01*
X126433500Y-76254239D01*
X126443091Y-76206021D01*
X126470405Y-76165144D01*
X129365544Y-73270005D01*
X129406421Y-73242691D01*
X129454639Y-73233100D01*
X159573303Y-73233100D01*
X159621521Y-73242691D01*
X159662398Y-73270005D01*
X164218798Y-77826405D01*
X164249536Y-77876564D01*
X164254152Y-77935211D01*
X164231639Y-77989561D01*
X164186906Y-78027767D01*
X164129703Y-78041500D01*
X159109499Y-78041500D01*
X159046499Y-78024619D01*
X159000380Y-77978500D01*
X158983499Y-77915500D01*
X158983499Y-77849460D01*
X158983499Y-77849456D01*
X158972887Y-77745574D01*
X158917115Y-77577262D01*
X158824030Y-77426348D01*
X158824028Y-77426346D01*
X158824027Y-77426344D01*
X158698655Y-77300972D01*
X158698650Y-77300969D01*
X158547738Y-77207885D01*
X158379426Y-77152113D01*
X158275545Y-77141500D01*
X158275540Y-77141500D01*
X157674459Y-77141500D01*
X157570573Y-77152113D01*
X157402262Y-77207885D01*
X157251344Y-77300972D01*
X157125972Y-77426344D01*
X157125970Y-77426348D01*
X157032885Y-77577262D01*
X156977113Y-77745574D01*
X156973239Y-77783499D01*
X156966500Y-77849459D01*
X156966500Y-79450540D01*
X156966501Y-79450545D01*
X156977113Y-79554426D01*
X157032885Y-79722738D01*
X157113006Y-79852634D01*
X157125972Y-79873655D01*
X157251344Y-79999027D01*
X157251346Y-79999028D01*
X157251348Y-79999030D01*
X157402262Y-80092115D01*
X157570574Y-80147887D01*
X157674455Y-80158500D01*
X158275544Y-80158499D01*
X158379426Y-80147887D01*
X158547738Y-80092115D01*
X158698652Y-79999030D01*
X158824030Y-79873652D01*
X158917115Y-79722738D01*
X158972887Y-79554426D01*
X158983500Y-79450545D01*
X158983500Y-79384500D01*
X159000381Y-79321500D01*
X159046500Y-79275381D01*
X159109500Y-79258500D01*
X165033017Y-79258500D01*
X165081235Y-79268091D01*
X165122112Y-79295405D01*
X169600398Y-83773691D01*
X169627712Y-83814568D01*
X169637303Y-83862786D01*
X169637303Y-84135296D01*
X169627712Y-84183514D01*
X169600400Y-84224388D01*
X169552744Y-84272045D01*
X169444738Y-84380050D01*
X169402327Y-84432678D01*
X169382116Y-84461787D01*
X169357047Y-84479194D01*
X169301711Y-84523785D01*
X169199471Y-84626025D01*
X169303087Y-84729640D01*
X169326664Y-84762336D01*
X169338709Y-84800804D01*
X169345775Y-84849952D01*
X169345775Y-84849953D01*
X169345776Y-84849955D01*
X169406519Y-84982964D01*
X169444739Y-85030393D01*
X170786316Y-86371970D01*
X170792134Y-86376658D01*
X170833744Y-86410190D01*
X170966753Y-86470933D01*
X170980976Y-86472977D01*
X171015905Y-86477999D01*
X171054372Y-86490044D01*
X171087069Y-86513622D01*
X171190683Y-86617237D01*
X171292923Y-86514999D01*
X171337517Y-86459661D01*
X171354923Y-86434590D01*
X171384013Y-86414394D01*
X171389228Y-86410191D01*
X171389231Y-86410190D01*
X171436659Y-86371970D01*
X171703925Y-86104704D01*
X171976405Y-85832225D01*
X172026564Y-85801487D01*
X172085211Y-85796871D01*
X172139561Y-85819384D01*
X172177767Y-85864117D01*
X172191500Y-85921320D01*
X172191500Y-88150121D01*
X172181909Y-88198339D01*
X172154595Y-88239217D01*
X171412895Y-88980915D01*
X171363591Y-89011371D01*
X171305869Y-89016537D01*
X171238765Y-89006889D01*
X171094036Y-89027698D01*
X170961024Y-89088442D01*
X170913592Y-89126665D01*
X169572022Y-90468235D01*
X169533799Y-90515667D01*
X169473055Y-90648679D01*
X169452246Y-90793411D01*
X169473055Y-90938142D01*
X169473055Y-90938143D01*
X169473056Y-90938145D01*
X169522529Y-91046475D01*
X169533799Y-91071154D01*
X169572023Y-91118587D01*
X170041635Y-91588199D01*
X170074247Y-91644683D01*
X170074247Y-91709905D01*
X170041635Y-91766389D01*
X168853428Y-92954597D01*
X168812554Y-92981909D01*
X168764336Y-92991500D01*
X168448136Y-92991500D01*
X168431692Y-92990422D01*
X168400000Y-92986250D01*
X168368309Y-92990422D01*
X168368296Y-92990422D01*
X168265145Y-93004003D01*
X168265144Y-93004003D01*
X168241150Y-93007161D01*
X168093121Y-93068476D01*
X167998696Y-93140932D01*
X167998476Y-93141102D01*
X167966011Y-93166014D01*
X167946545Y-93191381D01*
X167935681Y-93203768D01*
X164547356Y-96592095D01*
X164506479Y-96619409D01*
X164458261Y-96629000D01*
X161766632Y-96629000D01*
X161707370Y-96614194D01*
X161662036Y-96573255D01*
X161641284Y-96515805D01*
X161635387Y-96458074D01*
X161579615Y-96289762D01*
X161486530Y-96138848D01*
X161486528Y-96138846D01*
X161486527Y-96138844D01*
X161361155Y-96013472D01*
X161361152Y-96013470D01*
X161210238Y-95920385D01*
X161041926Y-95864613D01*
X160938045Y-95854000D01*
X160938040Y-95854000D01*
X160211959Y-95854000D01*
X160108073Y-95864613D01*
X159939762Y-95920385D01*
X159788844Y-96013472D01*
X159663472Y-96138844D01*
X159630979Y-96191524D01*
X159570385Y-96289762D01*
X159514613Y-96458074D01*
X159511757Y-96486034D01*
X159504000Y-96561959D01*
X159504000Y-97913040D01*
X159508715Y-97959193D01*
X159514613Y-98016926D01*
X159570385Y-98185238D01*
X159581958Y-98204000D01*
X159663472Y-98336155D01*
X159788844Y-98461527D01*
X159788846Y-98461528D01*
X159788848Y-98461530D01*
X159906647Y-98534189D01*
X159950524Y-98580024D01*
X159966500Y-98641430D01*
X159966500Y-98983570D01*
X159950524Y-99044976D01*
X159906647Y-99090810D01*
X159860979Y-99118979D01*
X159788844Y-99163472D01*
X159663472Y-99288844D01*
X159635928Y-99333500D01*
X159570385Y-99439762D01*
X159539208Y-99533851D01*
X159514613Y-99608074D01*
X159504000Y-99711959D01*
X159504000Y-101063040D01*
X159512526Y-101146500D01*
X159514613Y-101166926D01*
X159570385Y-101335238D01*
X159640331Y-101448638D01*
X159663472Y-101486155D01*
X159788844Y-101611527D01*
X159788846Y-101611528D01*
X159788848Y-101611530D01*
X159939762Y-101704615D01*
X160108074Y-101760387D01*
X160211955Y-101771000D01*
X160938044Y-101770999D01*
X161041926Y-101760387D01*
X161210238Y-101704615D01*
X161361152Y-101611530D01*
X161486530Y-101486152D01*
X161579615Y-101335238D01*
X161635387Y-101166926D01*
X161646000Y-101063045D01*
X161645999Y-99711956D01*
X161635387Y-99608074D01*
X161579615Y-99439762D01*
X161486530Y-99288848D01*
X161486528Y-99288846D01*
X161486527Y-99288844D01*
X161361155Y-99163472D01*
X161355293Y-99159856D01*
X161243352Y-99090810D01*
X161199476Y-99044976D01*
X161183500Y-98983570D01*
X161183500Y-98641430D01*
X161190152Y-98615861D01*
X168269318Y-98615861D01*
X168744137Y-99090680D01*
X168825055Y-99156598D01*
X168983400Y-99236121D01*
X169155822Y-99276987D01*
X169333014Y-99276987D01*
X169505435Y-99236121D01*
X169663780Y-99156598D01*
X169744698Y-99090680D01*
X170325584Y-98509795D01*
X170325584Y-98509793D01*
X169350485Y-97534694D01*
X169350483Y-97534694D01*
X168269318Y-98615859D01*
X168269318Y-98615861D01*
X161190152Y-98615861D01*
X161199476Y-98580024D01*
X161243352Y-98534189D01*
X161361152Y-98461530D01*
X161486530Y-98336152D01*
X161579615Y-98185238D01*
X161635387Y-98016926D01*
X161640568Y-97966217D01*
X161641286Y-97959193D01*
X161662038Y-97901744D01*
X161707372Y-97860806D01*
X161766633Y-97846000D01*
X164714364Y-97846000D01*
X164730807Y-97847077D01*
X164762500Y-97851250D01*
X164794193Y-97847077D01*
X164794203Y-97847077D01*
X164802384Y-97846000D01*
X164802385Y-97846000D01*
X164901956Y-97832891D01*
X164921351Y-97830338D01*
X165069376Y-97769024D01*
X165164572Y-97695977D01*
X165164572Y-97695976D01*
X165181129Y-97683272D01*
X165181132Y-97683269D01*
X165182046Y-97682567D01*
X165196487Y-97671487D01*
X165215957Y-97646111D01*
X165226809Y-97633738D01*
X165490401Y-97370146D01*
X167248981Y-97370146D01*
X167289846Y-97542567D01*
X167369369Y-97700912D01*
X167435287Y-97781830D01*
X167910107Y-98256650D01*
X167910109Y-98256650D01*
X168991273Y-97175485D01*
X169709694Y-97175485D01*
X170684793Y-98150584D01*
X170684795Y-98150584D01*
X171265680Y-97569698D01*
X171331598Y-97488780D01*
X171411121Y-97330435D01*
X171451987Y-97158014D01*
X171451987Y-96980822D01*
X171411121Y-96808400D01*
X171331598Y-96650055D01*
X171265680Y-96569137D01*
X170790861Y-96094318D01*
X170790859Y-96094318D01*
X169709694Y-97175483D01*
X169709694Y-97175485D01*
X168991273Y-97175485D01*
X169350484Y-96816274D01*
X170431650Y-95735109D01*
X170431650Y-95735107D01*
X169956830Y-95260287D01*
X169875912Y-95194369D01*
X169717567Y-95114846D01*
X169545146Y-95073981D01*
X169367954Y-95073981D01*
X169195532Y-95114846D01*
X169037187Y-95194369D01*
X168956269Y-95260287D01*
X167435287Y-96781269D01*
X167369369Y-96862187D01*
X167289846Y-97020532D01*
X167248981Y-97192954D01*
X167248981Y-97370146D01*
X165490401Y-97370146D01*
X168615143Y-94245405D01*
X168656021Y-94218091D01*
X168704239Y-94208500D01*
X169020439Y-94208500D01*
X169036882Y-94209577D01*
X169068575Y-94213750D01*
X169100268Y-94209577D01*
X169100278Y-94209577D01*
X169108459Y-94208500D01*
X169108460Y-94208500D01*
X169208031Y-94195391D01*
X169227426Y-94192838D01*
X169375451Y-94131524D01*
X169470647Y-94058477D01*
X169470647Y-94058476D01*
X169487204Y-94045772D01*
X169487207Y-94045769D01*
X169488121Y-94045067D01*
X169502562Y-94033987D01*
X169522032Y-94008611D01*
X169532884Y-93996238D01*
X169828088Y-93701034D01*
X172155177Y-93701034D01*
X172257418Y-93803274D01*
X172312752Y-93847864D01*
X172337822Y-93865270D01*
X172358031Y-93894377D01*
X172388608Y-93932320D01*
X172409323Y-93969463D01*
X172416500Y-94011382D01*
X172416500Y-94276864D01*
X172415422Y-94293310D01*
X172411250Y-94325000D01*
X172415422Y-94356690D01*
X172415422Y-94356697D01*
X172424944Y-94429022D01*
X172424944Y-94429023D01*
X172432161Y-94483850D01*
X172493476Y-94631878D01*
X172566521Y-94727072D01*
X172566524Y-94727074D01*
X172591010Y-94758984D01*
X172591011Y-94758985D01*
X172591013Y-94758987D01*
X172616379Y-94778451D01*
X172628769Y-94789318D01*
X173079595Y-95240144D01*
X173106909Y-95281021D01*
X173116500Y-95329239D01*
X173116500Y-99326864D01*
X173115422Y-99343310D01*
X173111250Y-99375000D01*
X173115422Y-99406690D01*
X173115422Y-99406697D01*
X173119940Y-99441013D01*
X173119940Y-99441014D01*
X173132161Y-99533849D01*
X173193476Y-99681878D01*
X173266521Y-99777072D01*
X173266524Y-99777074D01*
X173291010Y-99808984D01*
X173291011Y-99808985D01*
X173291013Y-99808987D01*
X173316379Y-99828451D01*
X173328769Y-99839318D01*
X175535681Y-102046230D01*
X175546547Y-102058619D01*
X175566013Y-102083987D01*
X175591377Y-102103450D01*
X175591393Y-102103464D01*
X175693122Y-102181523D01*
X175841521Y-102242992D01*
X175894370Y-102284159D01*
X175918651Y-102346595D01*
X175927113Y-102429426D01*
X175982885Y-102597738D01*
X176074311Y-102745962D01*
X176075972Y-102748655D01*
X176201344Y-102874027D01*
X176201346Y-102874028D01*
X176201348Y-102874030D01*
X176352262Y-102967115D01*
X176520574Y-103022887D01*
X176624455Y-103033500D01*
X177350544Y-103033499D01*
X177454426Y-103022887D01*
X177622738Y-102967115D01*
X177773652Y-102874030D01*
X177899030Y-102748652D01*
X177992115Y-102597738D01*
X178047887Y-102429426D01*
X178058500Y-102325545D01*
X178058499Y-100974456D01*
X178047887Y-100870574D01*
X177992115Y-100702262D01*
X177899030Y-100551348D01*
X177899028Y-100551346D01*
X177899027Y-100551344D01*
X177773655Y-100425972D01*
X177773652Y-100425970D01*
X177622738Y-100332885D01*
X177454426Y-100277113D01*
X177350545Y-100266500D01*
X177350540Y-100266500D01*
X176624459Y-100266500D01*
X176520573Y-100277113D01*
X176352262Y-100332885D01*
X176201344Y-100425972D01*
X176075971Y-100551345D01*
X176039807Y-100609976D01*
X176000266Y-100650096D01*
X175947194Y-100668976D01*
X175891199Y-100662843D01*
X175843472Y-100632923D01*
X174370405Y-99159856D01*
X174343091Y-99118979D01*
X174333500Y-99070761D01*
X174333500Y-96184255D01*
X174347233Y-96127052D01*
X174385439Y-96082319D01*
X174439789Y-96059806D01*
X174498436Y-96064422D01*
X174548595Y-96095160D01*
X175085520Y-96632085D01*
X175085525Y-96632089D01*
X175085526Y-96632090D01*
X175132954Y-96670310D01*
X175265963Y-96731053D01*
X175410697Y-96751862D01*
X175555431Y-96731053D01*
X175688440Y-96670310D01*
X175735869Y-96632090D01*
X176752110Y-95615849D01*
X176808594Y-95583237D01*
X176873816Y-95583237D01*
X176930300Y-95615849D01*
X177938479Y-96624028D01*
X177962390Y-96657394D01*
X177974306Y-96696676D01*
X177980085Y-96740570D01*
X177980086Y-96740585D01*
X177991752Y-96829199D01*
X177996824Y-96867731D01*
X178058139Y-97015759D01*
X178131184Y-97110953D01*
X178131187Y-97110955D01*
X178155673Y-97142865D01*
X178155674Y-97142866D01*
X178155676Y-97142868D01*
X178181042Y-97162332D01*
X178193432Y-97173199D01*
X181467323Y-100447090D01*
X181501241Y-100508911D01*
X181496631Y-100579275D01*
X181454938Y-100636143D01*
X181447934Y-100641518D01*
X181447930Y-100641521D01*
X181416013Y-100666012D01*
X181396550Y-100691376D01*
X181385686Y-100703763D01*
X181178557Y-100910893D01*
X181123839Y-100943017D01*
X181060403Y-100944402D01*
X181004336Y-100914695D01*
X180969858Y-100861433D01*
X180917115Y-100702262D01*
X180824030Y-100551348D01*
X180824028Y-100551346D01*
X180824027Y-100551344D01*
X180698655Y-100425972D01*
X180698652Y-100425970D01*
X180547738Y-100332885D01*
X180379426Y-100277113D01*
X180275545Y-100266500D01*
X180275540Y-100266500D01*
X179549459Y-100266500D01*
X179445573Y-100277113D01*
X179277262Y-100332885D01*
X179126344Y-100425972D01*
X179000972Y-100551344D01*
X178983744Y-100579275D01*
X178907885Y-100702262D01*
X178852113Y-100870574D01*
X178844571Y-100944402D01*
X178841500Y-100974459D01*
X178841500Y-102325540D01*
X178841501Y-102325545D01*
X178852113Y-102429426D01*
X178907885Y-102597738D01*
X178999311Y-102745962D01*
X179000972Y-102748655D01*
X179126344Y-102874027D01*
X179126346Y-102874028D01*
X179126348Y-102874030D01*
X179277262Y-102967115D01*
X179445574Y-103022887D01*
X179549455Y-103033500D01*
X180275544Y-103033499D01*
X180379426Y-103022887D01*
X180547738Y-102967115D01*
X180698652Y-102874030D01*
X180824030Y-102748652D01*
X180917115Y-102597738D01*
X180964744Y-102454000D01*
X182092000Y-102454000D01*
X182092000Y-102548589D01*
X182098505Y-102609093D01*
X182149554Y-102745962D01*
X182237095Y-102862904D01*
X182354037Y-102950445D01*
X182490906Y-103001494D01*
X182551411Y-103008000D01*
X183646000Y-103008000D01*
X183646000Y-102454000D01*
X184154000Y-102454000D01*
X184154000Y-103008000D01*
X185248589Y-103008000D01*
X185309093Y-103001494D01*
X185445962Y-102950445D01*
X185562904Y-102862904D01*
X185650445Y-102745962D01*
X185701494Y-102609093D01*
X185708000Y-102548589D01*
X185708000Y-102454000D01*
X184154000Y-102454000D01*
X183646000Y-102454000D01*
X182092000Y-102454000D01*
X180964744Y-102454000D01*
X180972887Y-102429426D01*
X180975356Y-102405253D01*
X180978786Y-102371693D01*
X180999538Y-102314244D01*
X181044872Y-102273306D01*
X181104133Y-102258500D01*
X181251864Y-102258500D01*
X181268307Y-102259577D01*
X181300000Y-102263750D01*
X181331693Y-102259577D01*
X181331703Y-102259577D01*
X181339884Y-102258500D01*
X181339885Y-102258500D01*
X181439456Y-102245391D01*
X181458851Y-102242838D01*
X181606876Y-102181524D01*
X181702072Y-102108477D01*
X181702072Y-102108476D01*
X181718629Y-102095772D01*
X181718632Y-102095769D01*
X181719546Y-102095067D01*
X181733987Y-102083987D01*
X181753454Y-102058616D01*
X181764306Y-102046241D01*
X181889179Y-101921368D01*
X181945663Y-101888758D01*
X182010885Y-101888758D01*
X182067369Y-101921370D01*
X182091999Y-101946000D01*
X185708000Y-101946000D01*
X185708000Y-101851411D01*
X185701494Y-101790906D01*
X185665629Y-101694747D01*
X185657685Y-101650715D01*
X185665630Y-101606682D01*
X185701989Y-101509201D01*
X185708500Y-101448638D01*
X185708500Y-101209500D01*
X185725381Y-101146500D01*
X185771500Y-101100381D01*
X185834500Y-101083500D01*
X186420761Y-101083500D01*
X186468979Y-101093091D01*
X186509856Y-101120405D01*
X187554595Y-102165144D01*
X187581909Y-102206021D01*
X187591500Y-102254239D01*
X187591500Y-102548638D01*
X187598011Y-102609200D01*
X187649111Y-102746205D01*
X187736738Y-102863261D01*
X187853794Y-102950888D01*
X187853795Y-102950888D01*
X187853796Y-102950889D01*
X187990799Y-103001989D01*
X188051362Y-103008500D01*
X190748638Y-103008500D01*
X190809201Y-103001989D01*
X190946204Y-102950889D01*
X191063261Y-102863261D01*
X191150889Y-102746204D01*
X191201989Y-102609201D01*
X191208500Y-102548638D01*
X191208500Y-101851362D01*
X191201989Y-101790799D01*
X191165895Y-101694029D01*
X191157951Y-101649999D01*
X191165894Y-101605972D01*
X191201989Y-101509201D01*
X191208500Y-101448638D01*
X191208500Y-100751362D01*
X191201989Y-100690799D01*
X191150889Y-100553796D01*
X191150888Y-100553794D01*
X191063261Y-100436738D01*
X190946205Y-100349111D01*
X190871198Y-100321135D01*
X190809201Y-100298011D01*
X190748638Y-100291500D01*
X188051362Y-100291500D01*
X188051360Y-100291500D01*
X188035789Y-100293174D01*
X187980402Y-100286719D01*
X187933226Y-100256991D01*
X187170405Y-99494170D01*
X187143091Y-99453293D01*
X187133500Y-99405075D01*
X187133500Y-98204000D01*
X187504500Y-98204000D01*
X187504500Y-98625503D01*
X187515106Y-98729328D01*
X187570840Y-98897522D01*
X187663867Y-99048342D01*
X187789157Y-99173632D01*
X187939977Y-99266659D01*
X188108171Y-99322393D01*
X188211997Y-99333000D01*
X188321000Y-99333000D01*
X188321000Y-98204000D01*
X188829000Y-98204000D01*
X188829000Y-99333000D01*
X188938003Y-99333000D01*
X189041828Y-99322393D01*
X189210022Y-99266659D01*
X189360842Y-99173632D01*
X189486132Y-99048342D01*
X189579159Y-98897522D01*
X189634893Y-98729328D01*
X189645500Y-98625503D01*
X189645500Y-98204000D01*
X188829000Y-98204000D01*
X188321000Y-98204000D01*
X187504500Y-98204000D01*
X187133500Y-98204000D01*
X187133500Y-97696000D01*
X187504500Y-97696000D01*
X188321000Y-97696000D01*
X188321000Y-96567000D01*
X188829000Y-96567000D01*
X188829000Y-97696000D01*
X189645500Y-97696000D01*
X189645500Y-97274497D01*
X189634893Y-97170671D01*
X189579159Y-97002477D01*
X189486132Y-96851657D01*
X189360842Y-96726367D01*
X189210022Y-96633340D01*
X189041828Y-96577606D01*
X188938003Y-96567000D01*
X188829000Y-96567000D01*
X188321000Y-96567000D01*
X188211997Y-96567000D01*
X188108171Y-96577606D01*
X187939977Y-96633340D01*
X187789157Y-96726367D01*
X187663867Y-96851657D01*
X187570840Y-97002477D01*
X187515106Y-97170671D01*
X187504500Y-97274497D01*
X187504500Y-97696000D01*
X187133500Y-97696000D01*
X187133500Y-96698136D01*
X187134578Y-96681690D01*
X187136076Y-96670309D01*
X187138750Y-96650000D01*
X187134578Y-96618309D01*
X187134578Y-96618303D01*
X187127160Y-96561956D01*
X187117838Y-96491150D01*
X187117837Y-96491147D01*
X187115719Y-96486034D01*
X187115716Y-96486027D01*
X187056524Y-96343123D01*
X186978456Y-96241383D01*
X186978443Y-96241369D01*
X186958987Y-96216012D01*
X186933618Y-96196546D01*
X186921228Y-96185679D01*
X184859144Y-94123595D01*
X184828406Y-94073436D01*
X184823790Y-94014789D01*
X184846303Y-93960439D01*
X184891036Y-93922233D01*
X184948239Y-93908500D01*
X187085406Y-93908500D01*
X187133624Y-93918091D01*
X187174501Y-93945405D01*
X187618228Y-94389132D01*
X187647057Y-94433843D01*
X187654863Y-94486466D01*
X187640256Y-94537621D01*
X187613758Y-94587196D01*
X187556091Y-94777298D01*
X187536619Y-94975000D01*
X187556091Y-95172701D01*
X187613758Y-95362802D01*
X187707406Y-95538007D01*
X187833431Y-95691568D01*
X187986992Y-95817593D01*
X187986996Y-95817595D01*
X188162196Y-95911241D01*
X188257247Y-95940074D01*
X188352298Y-95968908D01*
X188550000Y-95988380D01*
X188747701Y-95968908D01*
X188937804Y-95911241D01*
X189113004Y-95817595D01*
X189113005Y-95817593D01*
X189113007Y-95817593D01*
X189266568Y-95691568D01*
X189392593Y-95538007D01*
X189398608Y-95526754D01*
X189486241Y-95362804D01*
X189543908Y-95172701D01*
X189563380Y-94975000D01*
X189559612Y-94936739D01*
X189543908Y-94777298D01*
X189499795Y-94631878D01*
X189486241Y-94587196D01*
X189420258Y-94463750D01*
X189392595Y-94411995D01*
X189266568Y-94258432D01*
X189141912Y-94156129D01*
X189121609Y-94128297D01*
X189118908Y-94130261D01*
X189083563Y-94081612D01*
X189077052Y-94071700D01*
X189054542Y-94033638D01*
X189040212Y-94019308D01*
X189027378Y-94004281D01*
X189015472Y-93987893D01*
X189015471Y-93987892D01*
X188981400Y-93959705D01*
X188972622Y-93951717D01*
X188664898Y-93643993D01*
X188631055Y-93582505D01*
X188635358Y-93512450D01*
X188676474Y-93455566D01*
X188741643Y-93429505D01*
X188747701Y-93428908D01*
X188747700Y-93428908D01*
X188937804Y-93371241D01*
X189113004Y-93277595D01*
X189113005Y-93277593D01*
X189113007Y-93277593D01*
X189266568Y-93151568D01*
X189392593Y-92998007D01*
X189396071Y-92991500D01*
X189486241Y-92822804D01*
X189543908Y-92632701D01*
X189563380Y-92435000D01*
X189543908Y-92237299D01*
X189486241Y-92047196D01*
X189392595Y-91871996D01*
X189392593Y-91871992D01*
X189266568Y-91718431D01*
X189113007Y-91592406D01*
X188937802Y-91498758D01*
X188747701Y-91441091D01*
X188549999Y-91421619D01*
X188352298Y-91441091D01*
X188162197Y-91498758D01*
X187986992Y-91592406D01*
X187833431Y-91718431D01*
X187728750Y-91845986D01*
X187685223Y-91879956D01*
X187631351Y-91892053D01*
X187151128Y-91892053D01*
X187093925Y-91878320D01*
X187049192Y-91840114D01*
X187026679Y-91785764D01*
X187031295Y-91727117D01*
X187062033Y-91676958D01*
X187415342Y-91323648D01*
X187415342Y-91323647D01*
X187415347Y-91323643D01*
X187453567Y-91276215D01*
X187453568Y-91276212D01*
X187457771Y-91270997D01*
X187460893Y-91266500D01*
X190686200Y-91266500D01*
X190686200Y-91362171D01*
X190696631Y-91464283D01*
X190751446Y-91629704D01*
X190842939Y-91778036D01*
X190966163Y-91901260D01*
X191114495Y-91992753D01*
X191279916Y-92047568D01*
X191382029Y-92058000D01*
X191415200Y-92058000D01*
X191415200Y-91266500D01*
X191923200Y-91266500D01*
X191923200Y-92058000D01*
X191956371Y-92058000D01*
X192058483Y-92047568D01*
X192223904Y-91992753D01*
X192372236Y-91901260D01*
X192495460Y-91778036D01*
X192586953Y-91629704D01*
X192641768Y-91464283D01*
X192652200Y-91362171D01*
X192652200Y-91266500D01*
X191923200Y-91266500D01*
X191415200Y-91266500D01*
X190686200Y-91266500D01*
X187460893Y-91266500D01*
X187477967Y-91241907D01*
X187503038Y-91224501D01*
X187558376Y-91179907D01*
X187660615Y-91077668D01*
X187556999Y-90974053D01*
X187533421Y-90941356D01*
X187521376Y-90902887D01*
X187520221Y-90894855D01*
X187514310Y-90853738D01*
X187509186Y-90842519D01*
X187453567Y-90720728D01*
X187423513Y-90683434D01*
X187415347Y-90673300D01*
X186073770Y-89331723D01*
X186026341Y-89293503D01*
X185893332Y-89232760D01*
X185893330Y-89232759D01*
X185893329Y-89232759D01*
X185844181Y-89225693D01*
X185805713Y-89213648D01*
X185773017Y-89190071D01*
X185669402Y-89086455D01*
X185567162Y-89188695D01*
X185522571Y-89244031D01*
X185505164Y-89269100D01*
X185476055Y-89289311D01*
X185423421Y-89331727D01*
X184859671Y-89895477D01*
X184816061Y-89949593D01*
X184797361Y-89976526D01*
X184770439Y-89995218D01*
X184716315Y-90038834D01*
X184152565Y-90602584D01*
X184108956Y-90656700D01*
X184090255Y-90683631D01*
X184063324Y-90702332D01*
X184009208Y-90745941D01*
X183445458Y-91309691D01*
X183401849Y-91363807D01*
X183383148Y-91390738D01*
X183356217Y-91409439D01*
X183302101Y-91453048D01*
X182738351Y-92016798D01*
X182694735Y-92070922D01*
X182676043Y-92097844D01*
X182649110Y-92116544D01*
X182594994Y-92160154D01*
X182031244Y-92723904D01*
X181987635Y-92778020D01*
X181968934Y-92804951D01*
X181942003Y-92823652D01*
X181887887Y-92867261D01*
X181324137Y-93431011D01*
X181280527Y-93485127D01*
X181261827Y-93512060D01*
X181234905Y-93530752D01*
X181180781Y-93574368D01*
X180617031Y-94138118D01*
X180573422Y-94192234D01*
X180554721Y-94219165D01*
X180527790Y-94237866D01*
X180473674Y-94281475D01*
X179909924Y-94845225D01*
X179866315Y-94899341D01*
X179847614Y-94926272D01*
X179820683Y-94944973D01*
X179766567Y-94988582D01*
X179202817Y-95552332D01*
X179159201Y-95606456D01*
X179140509Y-95633378D01*
X179113576Y-95652078D01*
X179059465Y-95695684D01*
X178984442Y-95770706D01*
X178927958Y-95803316D01*
X178862736Y-95803316D01*
X178806253Y-95770704D01*
X176789315Y-93753766D01*
X176778448Y-93741375D01*
X176758986Y-93716011D01*
X176727074Y-93691524D01*
X176727074Y-93691525D01*
X176727072Y-93691523D01*
X176631876Y-93618476D01*
X176631875Y-93618475D01*
X176502100Y-93564721D01*
X176483851Y-93557162D01*
X176483850Y-93557161D01*
X176483848Y-93557161D01*
X176464468Y-93554608D01*
X176464456Y-93554608D01*
X176450469Y-93552766D01*
X176356703Y-93540422D01*
X176356691Y-93540422D01*
X176325000Y-93536250D01*
X176293307Y-93540422D01*
X176276864Y-93541500D01*
X176030966Y-93541500D01*
X175982748Y-93531909D01*
X175941871Y-93504595D01*
X175900507Y-93463231D01*
X175867895Y-93406747D01*
X175867895Y-93341525D01*
X175900507Y-93285041D01*
X181412546Y-87773002D01*
X186933735Y-82251812D01*
X186946119Y-82240952D01*
X186946288Y-82240822D01*
X186971487Y-82221487D01*
X186985448Y-82203291D01*
X186985452Y-82203288D01*
X187069023Y-82094378D01*
X187074083Y-82082162D01*
X187130338Y-81946350D01*
X187151251Y-81787500D01*
X187147077Y-81755801D01*
X187146000Y-81739356D01*
X187146000Y-76228930D01*
X187161976Y-76167524D01*
X187205852Y-76121689D01*
X187323652Y-76049030D01*
X187449030Y-75923652D01*
X187542115Y-75772738D01*
X187597887Y-75604426D01*
X187608500Y-75500545D01*
X187608499Y-74149456D01*
X187597887Y-74045574D01*
X187542115Y-73877262D01*
X187449030Y-73726348D01*
X187449028Y-73726346D01*
X187449027Y-73726344D01*
X187323655Y-73600972D01*
X187323652Y-73600970D01*
X187172738Y-73507885D01*
X187004426Y-73452113D01*
X186900545Y-73441500D01*
X186900540Y-73441500D01*
X186174459Y-73441500D01*
X186070573Y-73452113D01*
X185902262Y-73507885D01*
X185751344Y-73600972D01*
X185625972Y-73726344D01*
X185615569Y-73743210D01*
X185532885Y-73877262D01*
X185477113Y-74045574D01*
X185468095Y-74133851D01*
X185466500Y-74149459D01*
X185466500Y-75500540D01*
X185477113Y-75604425D01*
X185477113Y-75604426D01*
X185532885Y-75772738D01*
X185622671Y-75918303D01*
X185625972Y-75923655D01*
X185751344Y-76049027D01*
X185751346Y-76049028D01*
X185751348Y-76049030D01*
X185869147Y-76121689D01*
X185913024Y-76167524D01*
X185929000Y-76228930D01*
X185929000Y-81483261D01*
X185919409Y-81531479D01*
X185892095Y-81572356D01*
X175039958Y-92424491D01*
X174983474Y-92457103D01*
X174918252Y-92457103D01*
X174861768Y-92424491D01*
X174392371Y-91955094D01*
X174339732Y-91912674D01*
X174310626Y-91892466D01*
X174293220Y-91867396D01*
X174248630Y-91812062D01*
X174146390Y-91709821D01*
X174146389Y-91709821D01*
X174042772Y-91813438D01*
X174010077Y-91837015D01*
X173971610Y-91849060D01*
X173922463Y-91856126D01*
X173789451Y-91916870D01*
X173742019Y-91955093D01*
X172400449Y-93296663D01*
X172362226Y-93344095D01*
X172301482Y-93477107D01*
X172294416Y-93526254D01*
X172282371Y-93564721D01*
X172258794Y-93597416D01*
X172155177Y-93701033D01*
X172155177Y-93701034D01*
X169828088Y-93701034D01*
X170902186Y-92626937D01*
X170958668Y-92594327D01*
X171023890Y-92594327D01*
X171080374Y-92626939D01*
X171549986Y-93096551D01*
X171602626Y-93138971D01*
X171631725Y-93159175D01*
X171649140Y-93184254D01*
X171693727Y-93239583D01*
X171795966Y-93341823D01*
X171899581Y-93238208D01*
X171932278Y-93214630D01*
X171970744Y-93202585D01*
X172019897Y-93195519D01*
X172152906Y-93134776D01*
X172200335Y-93096556D01*
X173541912Y-91754979D01*
X173580132Y-91707550D01*
X173640875Y-91574541D01*
X173647941Y-91525388D01*
X173659986Y-91486922D01*
X173683564Y-91454225D01*
X173787179Y-91350610D01*
X173684939Y-91248371D01*
X173629610Y-91203784D01*
X173604531Y-91186369D01*
X173584327Y-91157270D01*
X173569765Y-91139200D01*
X173541912Y-91104636D01*
X173541911Y-91104635D01*
X173541907Y-91104630D01*
X172978157Y-90540880D01*
X172924032Y-90497263D01*
X172897109Y-90478570D01*
X172878415Y-90451645D01*
X172855581Y-90423310D01*
X172834806Y-90397529D01*
X172834805Y-90397528D01*
X172834801Y-90397523D01*
X172365188Y-89927910D01*
X172332576Y-89871426D01*
X172332576Y-89806204D01*
X172365186Y-89749722D01*
X173196235Y-88918673D01*
X173208619Y-88907813D01*
X173216162Y-88902025D01*
X173233987Y-88888348D01*
X173247948Y-88870152D01*
X173247952Y-88870149D01*
X173261098Y-88853018D01*
X173331524Y-88761237D01*
X173392838Y-88613212D01*
X173398492Y-88570265D01*
X173405702Y-88515500D01*
X173409578Y-88486058D01*
X173409578Y-88486051D01*
X173413750Y-88454361D01*
X173409577Y-88422668D01*
X173408500Y-88406225D01*
X173408500Y-85129240D01*
X173418091Y-85081022D01*
X173445404Y-85040145D01*
X173502585Y-84982964D01*
X173771239Y-84714308D01*
X173783624Y-84703448D01*
X173808987Y-84683987D01*
X173822948Y-84665791D01*
X173822952Y-84665788D01*
X173841876Y-84641127D01*
X173877264Y-84595008D01*
X173906523Y-84556878D01*
X173906524Y-84556876D01*
X173967838Y-84408851D01*
X173972294Y-84375000D01*
X173983500Y-84289885D01*
X173984578Y-84281697D01*
X173984578Y-84281690D01*
X173988750Y-84250000D01*
X173984577Y-84218307D01*
X173983500Y-84201864D01*
X173983500Y-83973136D01*
X173984578Y-83956690D01*
X173984895Y-83954282D01*
X173988750Y-83925000D01*
X173984578Y-83893309D01*
X173984578Y-83893303D01*
X173968826Y-83773655D01*
X173967838Y-83766150D01*
X173958148Y-83742757D01*
X173940932Y-83701194D01*
X173906524Y-83618123D01*
X173828456Y-83516383D01*
X173828443Y-83516369D01*
X173808987Y-83491012D01*
X173783618Y-83471546D01*
X173771228Y-83460679D01*
X173159144Y-82848595D01*
X173128406Y-82798436D01*
X173123790Y-82739789D01*
X173146303Y-82685439D01*
X173191036Y-82647233D01*
X173248239Y-82633500D01*
X174176864Y-82633500D01*
X174193307Y-82634577D01*
X174225000Y-82638750D01*
X174256693Y-82634577D01*
X174256703Y-82634577D01*
X174264884Y-82633500D01*
X174264885Y-82633500D01*
X174364456Y-82620391D01*
X174383851Y-82617838D01*
X174531876Y-82556524D01*
X174627072Y-82483477D01*
X174627072Y-82483476D01*
X174643629Y-82470772D01*
X174643632Y-82470769D01*
X174652731Y-82463787D01*
X174658987Y-82458987D01*
X174678457Y-82433611D01*
X174689302Y-82421245D01*
X175630068Y-81480480D01*
X175672328Y-81452606D01*
X175722156Y-81443616D01*
X175771500Y-81454966D01*
X175783492Y-81460442D01*
X175783493Y-81460443D01*
X175916502Y-81521186D01*
X176061236Y-81541995D01*
X176205970Y-81521186D01*
X176338979Y-81460443D01*
X176386407Y-81422223D01*
X176950167Y-80858463D01*
X176988387Y-80811035D01*
X176988387Y-80811032D01*
X176992588Y-80805821D01*
X177012788Y-80776725D01*
X177037856Y-80759321D01*
X177093196Y-80714726D01*
X177195435Y-80612487D01*
X177091819Y-80508872D01*
X177068241Y-80476175D01*
X177056196Y-80437706D01*
X177055005Y-80429425D01*
X177049130Y-80388558D01*
X177021579Y-80328230D01*
X179917426Y-80328230D01*
X179938235Y-80472962D01*
X179938235Y-80472963D01*
X179938236Y-80472965D01*
X179982740Y-80570416D01*
X179998979Y-80605974D01*
X180037203Y-80653407D01*
X180600953Y-81217157D01*
X180600958Y-81217161D01*
X180600959Y-81217162D01*
X180648387Y-81255382D01*
X180648389Y-81255383D01*
X180655077Y-81260772D01*
X180681998Y-81279463D01*
X180700700Y-81306397D01*
X180744310Y-81360514D01*
X181308060Y-81924264D01*
X181308065Y-81924268D01*
X181308066Y-81924269D01*
X181355494Y-81962489D01*
X181355496Y-81962490D01*
X181362184Y-81967879D01*
X181389105Y-81986570D01*
X181407807Y-82013504D01*
X181451417Y-82067621D01*
X182015167Y-82631371D01*
X182015172Y-82631375D01*
X182015173Y-82631376D01*
X182062601Y-82669596D01*
X182062603Y-82669597D01*
X182069292Y-82674987D01*
X182096213Y-82693679D01*
X182114906Y-82720602D01*
X182158523Y-82774727D01*
X182722273Y-83338477D01*
X182722278Y-83338481D01*
X182722279Y-83338482D01*
X182769707Y-83376702D01*
X182902716Y-83437445D01*
X183047450Y-83458254D01*
X183192184Y-83437445D01*
X183325193Y-83376702D01*
X183372622Y-83338482D01*
X184714199Y-81996905D01*
X184752419Y-81949476D01*
X184813162Y-81816467D01*
X184833971Y-81671733D01*
X184813162Y-81526999D01*
X184752419Y-81393990D01*
X184714199Y-81346562D01*
X184714198Y-81346561D01*
X184714194Y-81346556D01*
X184150444Y-80782806D01*
X184096319Y-80739189D01*
X184069396Y-80720496D01*
X184050704Y-80693575D01*
X184045314Y-80686886D01*
X184045313Y-80686884D01*
X184007093Y-80639456D01*
X184007092Y-80639455D01*
X184007088Y-80639450D01*
X183443338Y-80075700D01*
X183412052Y-80050488D01*
X183395905Y-80037476D01*
X183395904Y-80037475D01*
X183389221Y-80032090D01*
X183362287Y-80013388D01*
X183343596Y-79986467D01*
X183338207Y-79979779D01*
X183338206Y-79979777D01*
X183299986Y-79932349D01*
X183299985Y-79932348D01*
X183299981Y-79932343D01*
X182736231Y-79368593D01*
X182682114Y-79324983D01*
X182655180Y-79306281D01*
X182636489Y-79279360D01*
X182631100Y-79272672D01*
X182631099Y-79272670D01*
X182592879Y-79225242D01*
X182592878Y-79225241D01*
X182592874Y-79225236D01*
X182029124Y-78661486D01*
X181981691Y-78623262D01*
X181945907Y-78606920D01*
X181848682Y-78562519D01*
X181848680Y-78562518D01*
X181848679Y-78562518D01*
X181703948Y-78541709D01*
X181559216Y-78562518D01*
X181426204Y-78623262D01*
X181378772Y-78661485D01*
X180037202Y-80003055D01*
X179998979Y-80050487D01*
X179938235Y-80183499D01*
X179917426Y-80328230D01*
X177021579Y-80328230D01*
X176988387Y-80255548D01*
X176956839Y-80216400D01*
X176950167Y-80208120D01*
X176179324Y-79437277D01*
X176738644Y-79437277D01*
X177554644Y-80253277D01*
X177554645Y-80253277D01*
X177656884Y-80151038D01*
X177700290Y-80097173D01*
X177719201Y-80069936D01*
X177746438Y-80051025D01*
X177800303Y-80007619D01*
X177902542Y-79905380D01*
X177902542Y-79905379D01*
X177086542Y-79089379D01*
X177086540Y-79089379D01*
X176738644Y-79437275D01*
X176738644Y-79437277D01*
X176179324Y-79437277D01*
X175608590Y-78866543D01*
X175561161Y-78828323D01*
X175428152Y-78767580D01*
X175428150Y-78767579D01*
X175428149Y-78767579D01*
X175379002Y-78760513D01*
X175340534Y-78748468D01*
X175307838Y-78724891D01*
X175204222Y-78621274D01*
X175101981Y-78723515D01*
X175057399Y-78778839D01*
X175039982Y-78803922D01*
X175010878Y-78824129D01*
X174958241Y-78866547D01*
X174394491Y-79430297D01*
X174356267Y-79477730D01*
X174295523Y-79610742D01*
X174274714Y-79755474D01*
X174295523Y-79900205D01*
X174295523Y-79900206D01*
X174295524Y-79900208D01*
X174356267Y-80033217D01*
X174394487Y-80080646D01*
X174394489Y-80080648D01*
X174394490Y-80080649D01*
X174762551Y-80448710D01*
X174795163Y-80505194D01*
X174795163Y-80570416D01*
X174762551Y-80626900D01*
X174009856Y-81379595D01*
X173968979Y-81406909D01*
X173920761Y-81416500D01*
X171279239Y-81416500D01*
X171231021Y-81406909D01*
X171190144Y-81379595D01*
X170205140Y-80394591D01*
X170172528Y-80338107D01*
X170172528Y-80272885D01*
X170205140Y-80216400D01*
X170568908Y-79852634D01*
X170568908Y-79852633D01*
X169487742Y-78771468D01*
X169128533Y-78412259D01*
X169846952Y-78412259D01*
X170928117Y-79493424D01*
X170928119Y-79493424D01*
X171402938Y-79018604D01*
X171468856Y-78937686D01*
X171548379Y-78779341D01*
X171589245Y-78606920D01*
X171589245Y-78429728D01*
X171549507Y-78262065D01*
X175563432Y-78262065D01*
X176379432Y-79078065D01*
X176379434Y-79078065D01*
X176727329Y-78730170D01*
X177445751Y-78730170D01*
X178261751Y-79546170D01*
X178261752Y-79546170D01*
X178363991Y-79443931D01*
X178402175Y-79396547D01*
X178462859Y-79263667D01*
X178483648Y-79119077D01*
X178462859Y-78974488D01*
X178402175Y-78841607D01*
X178363988Y-78794220D01*
X177872844Y-78303076D01*
X177872843Y-78303076D01*
X177445751Y-78730169D01*
X177445751Y-78730170D01*
X176727329Y-78730170D01*
X176727330Y-78730169D01*
X176727330Y-78730167D01*
X175911330Y-77914167D01*
X175911329Y-77914167D01*
X175809089Y-78016407D01*
X175765696Y-78070255D01*
X175746773Y-78097508D01*
X175719520Y-78116431D01*
X175665672Y-78159824D01*
X175563432Y-78262064D01*
X175563432Y-78262065D01*
X171549507Y-78262065D01*
X171548379Y-78257306D01*
X171468856Y-78098961D01*
X171402938Y-78018043D01*
X170939853Y-77554958D01*
X176270539Y-77554958D01*
X177086539Y-78370958D01*
X177086540Y-78370958D01*
X177452106Y-78005392D01*
X177513633Y-77943866D01*
X177513633Y-77943865D01*
X177022489Y-77452721D01*
X176975102Y-77414534D01*
X176842221Y-77353850D01*
X176697632Y-77333061D01*
X176553042Y-77353850D01*
X176420162Y-77414534D01*
X176372779Y-77452717D01*
X176270539Y-77554957D01*
X176270539Y-77554958D01*
X170939853Y-77554958D01*
X170822053Y-77437158D01*
X170822051Y-77437158D01*
X169846952Y-78412257D01*
X169846952Y-78412259D01*
X169128533Y-78412259D01*
X168047367Y-77331092D01*
X168047366Y-77331092D01*
X167683597Y-77694859D01*
X167627113Y-77727470D01*
X167561891Y-77727470D01*
X167505407Y-77694858D01*
X166782432Y-76971883D01*
X168406576Y-76971883D01*
X169487741Y-78053048D01*
X169487743Y-78053048D01*
X170462842Y-77077949D01*
X170462842Y-77077947D01*
X169881956Y-76497061D01*
X169801038Y-76431143D01*
X169642693Y-76351620D01*
X169470272Y-76310755D01*
X169293080Y-76310755D01*
X169120658Y-76351620D01*
X168962313Y-76431143D01*
X168881395Y-76497061D01*
X168406576Y-76971881D01*
X168406576Y-76971883D01*
X166782432Y-76971883D01*
X162359187Y-72548638D01*
X182466100Y-72548638D01*
X182472611Y-72609201D01*
X182493852Y-72666149D01*
X182523711Y-72746205D01*
X182611338Y-72863261D01*
X182728394Y-72950888D01*
X182728395Y-72950888D01*
X182728396Y-72950889D01*
X182865399Y-73001989D01*
X182925962Y-73008500D01*
X183015100Y-73008500D01*
X183078100Y-73025381D01*
X183124219Y-73071500D01*
X183141100Y-73134500D01*
X183141100Y-73362610D01*
X183130306Y-73413636D01*
X183099773Y-73455919D01*
X183054733Y-73482214D01*
X182977261Y-73507885D01*
X182977262Y-73507885D01*
X182826344Y-73600972D01*
X182700972Y-73726344D01*
X182690569Y-73743210D01*
X182607885Y-73877262D01*
X182552113Y-74045574D01*
X182543095Y-74133851D01*
X182541500Y-74149459D01*
X182541500Y-75500540D01*
X182552113Y-75604425D01*
X182552113Y-75604426D01*
X182607885Y-75772738D01*
X182697671Y-75918303D01*
X182700972Y-75923655D01*
X182826344Y-76049027D01*
X182826346Y-76049028D01*
X182826348Y-76049030D01*
X182977262Y-76142115D01*
X183145574Y-76197887D01*
X183249455Y-76208500D01*
X183975544Y-76208499D01*
X184079426Y-76197887D01*
X184247738Y-76142115D01*
X184398652Y-76049030D01*
X184524030Y-75923652D01*
X184617115Y-75772738D01*
X184672887Y-75604426D01*
X184683500Y-75500545D01*
X184683499Y-74149456D01*
X184672887Y-74045574D01*
X184617115Y-73877262D01*
X184524030Y-73726348D01*
X184524028Y-73726346D01*
X184524027Y-73726344D01*
X184395005Y-73597322D01*
X184367691Y-73556445D01*
X184358100Y-73508227D01*
X184358100Y-73134500D01*
X184374981Y-73071500D01*
X184421100Y-73025381D01*
X184484100Y-73008500D01*
X184573238Y-73008500D01*
X184633801Y-73001989D01*
X184756286Y-72956303D01*
X184800313Y-72948360D01*
X184844347Y-72956304D01*
X184965508Y-73001494D01*
X185026011Y-73008000D01*
X186070600Y-73008000D01*
X186070600Y-71654000D01*
X186578600Y-71654000D01*
X186578600Y-73008000D01*
X187623189Y-73008000D01*
X187683693Y-73001494D01*
X187820562Y-72950445D01*
X187937504Y-72862904D01*
X188025045Y-72745962D01*
X188076094Y-72609093D01*
X188082600Y-72548589D01*
X188082600Y-71654000D01*
X186578600Y-71654000D01*
X186070600Y-71654000D01*
X186070600Y-69792000D01*
X186578600Y-69792000D01*
X186578600Y-71146000D01*
X188082600Y-71146000D01*
X188082600Y-70251411D01*
X188076094Y-70190906D01*
X188025045Y-70054037D01*
X187937504Y-69937095D01*
X187820562Y-69849554D01*
X187683693Y-69798505D01*
X187623189Y-69792000D01*
X186578600Y-69792000D01*
X186070600Y-69792000D01*
X185026011Y-69792000D01*
X184965504Y-69798505D01*
X184844346Y-69843694D01*
X184800315Y-69851638D01*
X184756283Y-69843694D01*
X184669926Y-69811485D01*
X184633801Y-69798011D01*
X184573238Y-69791500D01*
X182925962Y-69791500D01*
X182865399Y-69798011D01*
X182728394Y-69849111D01*
X182611338Y-69936738D01*
X182523711Y-70053794D01*
X182479414Y-70172560D01*
X182472611Y-70190799D01*
X182466100Y-70251362D01*
X182466100Y-72548638D01*
X162359187Y-72548638D01*
X160838915Y-71028366D01*
X160828048Y-71015975D01*
X160808586Y-70990611D01*
X160776674Y-70966124D01*
X160776674Y-70966125D01*
X160776672Y-70966123D01*
X160705696Y-70911661D01*
X160681475Y-70893075D01*
X160554102Y-70840316D01*
X160533451Y-70831762D01*
X160533450Y-70831761D01*
X160533448Y-70831761D01*
X160514068Y-70829208D01*
X160514056Y-70829208D01*
X160500069Y-70827366D01*
X160406303Y-70815022D01*
X160406291Y-70815022D01*
X160374600Y-70810850D01*
X160342907Y-70815022D01*
X160326464Y-70816100D01*
X115112140Y-70816100D01*
X115095694Y-70815022D01*
X115064004Y-70810850D01*
X115032314Y-70815022D01*
X115032300Y-70815022D01*
X114905154Y-70831761D01*
X114757130Y-70893075D01*
X114719957Y-70911661D01*
X114692482Y-70942679D01*
X114661935Y-70966120D01*
X114661934Y-70966121D01*
X114630015Y-70990614D01*
X114610549Y-71015981D01*
X114599685Y-71028368D01*
X114303767Y-71324286D01*
X114291380Y-71335151D01*
X114266012Y-71354617D01*
X114238973Y-71389855D01*
X114238950Y-71389883D01*
X114168476Y-71481726D01*
X114112817Y-71616100D01*
X114107162Y-71629752D01*
X114090422Y-71756907D01*
X114090422Y-71756914D01*
X114086250Y-71788604D01*
X114090422Y-71820294D01*
X114091500Y-71836740D01*
X114091500Y-74988360D01*
X114075524Y-75049766D01*
X114031648Y-75095599D01*
X114006647Y-75111021D01*
X113901344Y-75175972D01*
X113775972Y-75301344D01*
X113775970Y-75301348D01*
X113682885Y-75452262D01*
X113651186Y-75547925D01*
X113627113Y-75620574D01*
X113616500Y-75724459D01*
X113616500Y-77075540D01*
X112833500Y-77075540D01*
X112833499Y-75724456D01*
X112822887Y-75620574D01*
X112767115Y-75452262D01*
X112674030Y-75301348D01*
X112674028Y-75301346D01*
X112674027Y-75301344D01*
X112655710Y-75283027D01*
X112623098Y-75226543D01*
X112623098Y-75161321D01*
X112655708Y-75104839D01*
X113321235Y-74439312D01*
X113333619Y-74428452D01*
X113333788Y-74428322D01*
X113358987Y-74408987D01*
X113370777Y-74393622D01*
X113383475Y-74377072D01*
X113383477Y-74377072D01*
X113452859Y-74286650D01*
X113460624Y-74277473D01*
X113463099Y-74274815D01*
X113466623Y-74268712D01*
X113472581Y-74260947D01*
X113478371Y-74229131D01*
X113485111Y-74212861D01*
X113500568Y-74175544D01*
X113517838Y-74133851D01*
X113534578Y-74006697D01*
X113534578Y-74006690D01*
X113534710Y-74005681D01*
X113538750Y-73975000D01*
X113534577Y-73943307D01*
X113533500Y-73926864D01*
X113533500Y-72873136D01*
X113534578Y-72856690D01*
X113535461Y-72849981D01*
X113538750Y-72825000D01*
X113534578Y-72793309D01*
X113534578Y-72793303D01*
X113517838Y-72666149D01*
X113514708Y-72658593D01*
X113514705Y-72658587D01*
X113456523Y-72518121D01*
X113378457Y-72416385D01*
X113378443Y-72416369D01*
X113358987Y-72391012D01*
X113333618Y-72371546D01*
X113321228Y-72360679D01*
X113118028Y-72157479D01*
X113093462Y-72122763D01*
X113081845Y-72081854D01*
X113077389Y-72040399D01*
X113026289Y-71903396D01*
X113026288Y-71903394D01*
X112938661Y-71786338D01*
X112821605Y-71698711D01*
X112701730Y-71654000D01*
X112684601Y-71647611D01*
X112624038Y-71641100D01*
X109926762Y-71641100D01*
X109866199Y-71647611D01*
X109729194Y-71698711D01*
X109612138Y-71786338D01*
X109524511Y-71903394D01*
X109473411Y-72040398D01*
X109473411Y-72040399D01*
X109466900Y-72100962D01*
X109466900Y-72798238D01*
X107561828Y-72798238D01*
X107580592Y-72500000D01*
X107560243Y-72176566D01*
X107499518Y-71858233D01*
X107399374Y-71550021D01*
X107261390Y-71256790D01*
X107145969Y-71074915D01*
X107087745Y-70983168D01*
X106881171Y-70733462D01*
X106644930Y-70511619D01*
X106382753Y-70321135D01*
X106098762Y-70165010D01*
X105884768Y-70080284D01*
X105797447Y-70045711D01*
X105797444Y-70045710D01*
X105797441Y-70045709D01*
X105483555Y-69965116D01*
X105162040Y-69924500D01*
X105162037Y-69924500D01*
X104837963Y-69924500D01*
X104837960Y-69924500D01*
X104516444Y-69965116D01*
X104202558Y-70045709D01*
X103901237Y-70165010D01*
X103617246Y-70321135D01*
X103355069Y-70511619D01*
X103118828Y-70733462D01*
X102912254Y-70983168D01*
X102738610Y-71256789D01*
X102600626Y-71550020D01*
X102500481Y-71858233D01*
X102439756Y-72176567D01*
X102419407Y-72499999D01*
X100075500Y-72499999D01*
X100075500Y-70503539D01*
X100075698Y-70496474D01*
X100092676Y-70194163D01*
X100093492Y-70179620D01*
X100095074Y-70165585D01*
X100109567Y-70080284D01*
X100147639Y-69856205D01*
X100150778Y-69842451D01*
X100237656Y-69540888D01*
X100242317Y-69527568D01*
X100362416Y-69237626D01*
X100368530Y-69224930D01*
X100520335Y-68950258D01*
X100527845Y-68938307D01*
X100709446Y-68682365D01*
X100718244Y-68671333D01*
X100927351Y-68437341D01*
X100937342Y-68427351D01*
X100997081Y-68373965D01*
X101171333Y-68218244D01*
X101182365Y-68209446D01*
X101438313Y-68027841D01*
X101450258Y-68020335D01*
X101724930Y-67868530D01*
X101737626Y-67862416D01*
X102027568Y-67742317D01*
X102040888Y-67737656D01*
X102342451Y-67650778D01*
X102356205Y-67647639D01*
X102665586Y-67595073D01*
X102679620Y-67593492D01*
X102996474Y-67575697D01*
X103003539Y-67575500D01*
X191150760Y-67575500D01*
X191185639Y-67580423D01*
G37*
%TD.AperFunction*%
M02*
