M48
; DRILL file {KiCad 7.0.1-0} date 2023 September 15, Friday 13:21:50
; FORMAT={3:3/ absolute / metric / suppress leading zeros}
; #@! TF.CreationDate,2023-09-15T13:21:50+02:00
; #@! TF.GenerationSoftware,Kicad,Pcbnew,7.0.1-0
; #@! TF.FileFunction,MixedPlating,1,2
FMAT,2
METRIC,TZ
; #@! TA.AperFunction,Plated,PTH,ViaDrill
T1C0.125
; #@! TA.AperFunction,Plated,PTH,ViaDrill
T2C0.200
; #@! TA.AperFunction,Plated,PTH,ViaDrill
T3C0.500
; #@! TA.AperFunction,Plated,PTH,ComponentDrill
T4C0.600
; #@! TA.AperFunction,NonPlated,NPTH,ComponentDrill
T5C0.650
%
G90
G05
T1
X107497Y-87754
X107500Y-86750
T2
X101000Y-84000
X101000Y-91000
X102000Y-70000
X102000Y-77000
X102000Y-98000
X102000Y-105000
X107850Y-84295
X107850Y-90695
X111325Y-91625
X112000Y-70000
X112000Y-105000
X113200Y-98000
X113225Y-78050
X113280Y-84000
X117750Y-87925
X119304Y-84000
X120875Y-87294
X121725Y-87925
X121725Y-89825
X122000Y-70000
X122000Y-77000
X122000Y-91000
X122000Y-105000
X122100Y-96800
X123000Y-84000
X132000Y-70000
X132000Y-77000
X132000Y-84000
X132000Y-91000
X132000Y-98000
X132000Y-105000
X141150Y-98375
X142000Y-77000
X142000Y-84000
X142000Y-91000
X142000Y-105000
X142975Y-69650
X152000Y-70000
X152000Y-77000
X152000Y-84000
X152000Y-91000
X152000Y-98000
X152000Y-105000
X162000Y-77000
X162000Y-84000
X162000Y-91000
X162000Y-105000
X163975Y-70000
X168050Y-91000
X172000Y-70000
X172000Y-77000
X172000Y-98000
X172000Y-105000
X173800Y-88075
X179775Y-97000
X180500Y-96275
X181700Y-77000
X182000Y-70000
X182000Y-84000
X182000Y-91000
X182000Y-98000
X182000Y-105000
X191700Y-91000
X192000Y-70000
X192000Y-77000
X192000Y-84000
X192000Y-98000
X192000Y-105000
T3
X188550Y-92435
X188550Y-94975
T5
X106280Y-84610
X106280Y-90390
T4
G00X102900Y-83180
M15
G01X102300Y-83180
M16
G05
G00X102900Y-91820
M15
G01X102300Y-91820
M16
G05
G00X107320Y-83180
M15
G01X106220Y-83180
M16
G05
G00X107320Y-91820
M15
G01X106220Y-91820
M16
G05
T0
M30
